<svg width="640" height="640" viewBox="0 0 640 640" fill="none" xmlns="http://www.w3.org/2000/svg">
<g clip-path="url(#clip0_39_29061)">
<mask id="mask0_39_29061" style="mask-type:luminance" maskUnits="userSpaceOnUse" x="0" y="0" width="640" height="640">
<path d="M640 0H0V640H640V0Z" fill="white"/>
</mask>
<g mask="url(#mask0_39_29061)">
<path d="M640 640V0H317.5H0V640H640Z" fill="white"/>
<path d="M269.5 144L317.5 72.5H319.5L366.5 144L374 140.5L391 139L406 140.5L409.5 144L412 176.5L428.5 175L448.5 176.5H459L468 179.5L474.5 184L470 189L461.5 194.5L454.5 203L447.643 227L448.5 231H463.5L470 236.5H485L496.5 244.5L501.5 253.5L518 257L527.5 268.5L530 279L527.5 295L520.5 303L519 319.5L510.5 330L492.5 334.5L485 343L479 361L474 367.5L463 374.5L458.5 391.5L447 404.5L436.5 409L425.5 406L421 400.5L416 388.5L409.5 397L403.5 407.5L394.5 413L383 431L357.5 437L339 455L326 461L313 462L295 452.5L277 435.5L254 431L240 412L229 403.5L223 390.5L217 388L216 400.5L208.5 407.5H195L184.5 400.5L175 385L173 374.5L163 368.5L155.5 358.5L150 340L143 334L128.5 331L117.5 321.5L115 302.5L106.5 290L105.5 278L108 269L114 260.5L124 254.5H135L136.5 247.5L144 239.5L155.5 235.5L167.5 236.5L173 231L180 230L188.5 231L186 215.5L178 198L161.5 184L169.5 179L193.5 175L224.5 175.5L226 144L232.5 139.5H260.5L269.5 144Z" fill="white"/>
<path d="M191.5 205L176 188L198.5 193L208 207L214.5 218L217 231L210.5 246L204 233L191.5 205Z" fill="#E3AD33"/>
<path d="M445.5 205L461 188H453.5L438.5 193L429 207L422.5 218L420 231L422.5 243L426.5 246L433 233L445.5 205Z" fill="#E3AD33"/>
<path d="M516 149.5L537 143L536 165.5L517.5 168.5L516 157V149.5Z" fill="white"/>
<path d="M114.5 159L141.5 165L139.5 183.5L120.5 191L114.5 159Z" fill="white"/>
<path d="M241 82.5L251.5 68.5L265.5 80.5L256.5 95.5L242 88L241 82.5Z" fill="white"/>
<path d="M229 179.5L230 146.5L243.5 142L269.5 146L272 149L317.5 76.5L314.5 111.5L302 159L311.5 189L291 193.5L268.5 202.5L253.5 189L229 179.5Z" fill="#E3AD33"/>
<path d="M407.5 179L406.5 146L393 141.5L367 145.5L364.5 148.5L319 76L322 111L334.5 158.5L325 188.5L345.5 193L368 202L383 188.5L407.5 179Z" fill="#E3AD33"/>
<path d="M212.5 253.5L225.5 259.5L218 280.5L210.5 283.5L212.5 253.5Z" fill="#E3AD33"/>
<path d="M238.5 222.5H242.5L246 234.5L235 246.5L224.5 239L238.5 222.5Z" fill="#E3AD33"/>
<path d="M269 202.5H274L279.5 216L259 225L253 213L269 202.5Z" fill="#E3AD33"/>
<path d="M307.5 192.5H313.5L311 201.5L316 208.5L293 211L290 195.5L307.5 192.5Z" fill="#E3AD33"/>
<path d="M336 193.5L345.5 197L343.5 205.5L344 212.5L322.5 208.5L324 202L323.5 192.5L336 193.5Z" fill="#E3AD33"/>
<path d="M375 207L383.5 212.5L380.5 218.5L377.5 225.5L355.5 215.5L361.5 211.5L361 202L375 207Z" fill="#E3AD33"/>
<path d="M405.477 230.288L411.583 238.364L406.712 242.976L401.499 248.528L384.246 231.606L391.252 229.9L394.031 220.801L405.477 230.288Z" fill="#E3AD33"/>
<path d="M426.5 271.5L427.5 281L420 282.5L418.349 280.185L408.691 258.032H415.5L421.812 251.68L426.5 271.5Z" fill="#E3AD33"/>
<path d="M282.5 217L313.5 211.5L340 213.5L370.5 223.5L396 242.5L412.5 268L421.5 306L390.5 287.247L344.5 240.5L341 248L338.5 260L357 275L381 281.5L421.5 306L320 285.458L273.5 276.048L286.5 270.5L295.5 259L297.5 247L288.5 240.5L248 267.5L255.5 282.5L273.5 276.048L421.5 306L412.5 309.5L405 318L398 338L382.5 344L374.5 352.5L361 344H356.5L353 346.5L351.5 341L347 342L344.5 334.5L340 339.5L335.5 333.5L329.5 338L326.5 333.5L323.5 331L317 337L312 331L309 334.5L304.5 337L300.5 334.5L297.5 338L295.5 337H290.5L288.5 342L284.5 339.5L281.5 345L271.5 344L261 352.5L241 339.5L230.5 320.5L227 312L211.5 305.5L217.5 290L227 259L253.5 230L282.5 217Z" fill="#E3AD33"/>
<path d="M270 392L276 390.5L280.5 395L292 393.5L297 395L309 394.5L313.5 397L317.5 396L339 394.5L343.5 393.5L355 395L360 391.5L370 397L380 408.5L392 412L380 429L359.5 432L341 448L324 457.5L311 458.5L287 441.5L276 430L256.5 428.5L243.5 411L254 408L261.5 403.5L270 392Z" fill="#E3AD33"/>
<path d="M136.5 336.5L150.5 365L180 406.5L225.5 426L284 478.5L256.5 510.5L189.5 457L178 468L189.5 479L203 486.5L214.5 471.5L256.5 510.5L245.5 525L207 523.5L157.5 482.5L128.5 431.5L108 339.5L136.5 336.5Z" fill="#E3AD33"/>
<path d="M500.5 336L486.5 364.576L457 406.186L411.5 425.737L353 478.377L380.5 510.462L447.5 456.82L459 467.849L447.5 478.878L434 486.398L422.5 471.358L380.5 510.462L391.5 525L430 523.496L479.5 482.387L508.5 431.252L529 339.008L500.5 336Z" fill="#E3AD33"/>
<path d="M179.718 215L186.928 227L170.501 240L159.001 239L151.501 240.5L145.001 245.5L139.001 254.5L135.501 258L114.501 265.5L111.001 290.5L118.001 300.5L119.501 319.5L132.001 328.5L147.501 334L153.001 339L160.001 361.5L175.001 371.5L181.501 392L192.501 402.5L206.501 405.5L215.001 390.5L214.501 383L225.501 388.5L240.001 408.5L249.501 420L255.501 429.5L279.001 433.5L295.751 449.75L304.001 456L320.001 459L330.001 456L343.001 447.5L360.001 432.5L375.001 430.5L385.001 425L393.5 410.5L411.5 389L421.501 382.5L426.501 404L438.001 406L454 393L461.5 371L472.5 365L487 335L497.5 329.5L511.5 325.5L518.5 307.5L519 298.5L528 279L523 265L507.5 255.5L498.5 257L488 240L468 238.5L446.5 234L444.5 222L451.5 206.5L456.5 193.5L466 181.5L441 178L410 177.5L407 170.5L408 144.5L389 141.5L371 144.5L365 146L346 118.5L336.5 102L317.5 76.5L270 147L247.5 141L229 147L226 179L195 177L165.5 184L185 201.5L191 225.5L189.5 235.5L179.718 233.5L177.5 223.5L165.5 194L156 183L166.5 172.5H222.5L219.5 136L269.5 137.5L309.5 73L322 58.5L351.5 116L366.5 140.5L374.5 136L397.5 135.5L413 141.5V170.5L466.5 174.5L481.5 185L466 194L456 206.5L453.5 216L450 226L488 233L503 248L517.5 253.5L528.5 262L533 276.5L532.501 293L524.5 302.5L522 321.5L512.5 332L493.5 337L479.5 364L464.5 386.5L448 407.5L431.001 411.5L411.5 401L395.001 417L387.001 434L358.001 440L331.501 463.5L312.501 466L259.001 436.5L250.501 432.5L235.501 412.5L219.501 397L217.001 408.5L198.001 412.5L183.001 404.5L166.501 374.5L155.501 363.5L146.001 339.5L119.501 332L112.001 313.5L97.001 279L101.212 262.5L179.718 215Z" fill="#E3AD33"/>
<path d="M0 320V640H320H640V320V0H320H0V320ZM255.3 52C254.9 52.3 250.1 53.7 244.8 54.9C239.4 56.2 235 57.7 235 58.3C235 61.2 240.5 83 241.2 83C241.6 83 244.1 79.9 246.6 76L251.2 69.1L258.1 74.7C261.9 77.7 265 80.5 265 80.8C265 81.2 257.3 93.8 256.4 94.9C256.2 95.1 252.9 93.1 249 90.5C245.2 87.8 241.8 85.8 241.6 86.1C241.3 86.4 247.9 111.2 249.5 115.7C249.8 116.6 252.3 116.2 258.7 114.5C263.5 113.2 268.7 111.7 270.1 111.2C272.3 110.3 273 110.6 275.3 113.5C276.8 115.4 278 117.3 278 117.8C278 118.3 276.3 119 274.3 119.4C272.2 119.7 262.9 122 253.5 124.5C241 127.9 236 128.8 234.4 128.1C233 127.5 232 125.5 231.1 121.4C228.5 109.3 223.8 91 219.3 74.8C215.6 61.3 214.9 57.6 215.7 55.7C216.6 53.7 218.8 52.9 230.1 50.2C237.5 48.4 246.2 46.1 249.5 45.2L255.5 43.4L255.8 47.3C256 49.5 255.8 51.6 255.3 52ZM420 53.8C423.7 56.1 424.6 57.2 424.8 59.9C425.1 62.8 424.9 63.2 423.3 62.5C418.6 60.6 414.5 60.8 411.7 63C407.7 66.2 405.4 71.3 401.6 85.7C396.6 104.3 394.4 109.7 389.5 114.5C381.7 122.3 371.7 124 361.6 119.1C357.5 117 357 116.5 357 113.4C357 110.3 357.2 110 358.9 111C360 111.5 362.7 112 364.9 112C367.9 112 369.5 111.3 371.8 109.1C375.3 105.5 377 101.1 381 85C387.3 59.9 396.7 49.1 411 50.6C413.5 50.9 417.5 52.3 420 53.8ZM455.7 66.2C459.2 68 462 69.9 462 70.3C462 70.8 458.6 77.6 454.5 85.4L447 99.7L449.3 101.2C451.9 103 467.7 111 468.5 111C468.8 111 472.4 104.2 476.5 96C480.6 87.7 484.2 81 484.4 81C484.7 81 488 82.6 491.9 84.6C497.7 87.5 499 88.6 499 90.6C499 91.9 493.9 102.7 487.7 114.7C481.5 126.7 474.2 141 471.5 146.5C468.4 152.6 465.8 156.6 464.8 156.8C463.5 157.1 452 152.3 449.2 150.4C449 150.2 452.2 143.6 456.4 135.7C460.6 127.8 464 120.9 464 120.4C464 119.5 443 108.6 442.5 109.2C442.3 109.4 439 116 435 124C431 132 427.6 138.6 427.5 138.8C426.7 139.7 413.1 131.8 412.5 130.1C412.1 128.7 413.9 124.4 418.5 116.1C422.1 109.5 429.4 95.2 434.7 84.3C440 73.4 444.8 64.2 445.4 63.8C447.3 62.5 449.3 62.9 455.7 66.2ZM320.5 70.6C321.4 71 323 73.1 324.2 75.4C328 82.9 362.7 137.4 366.4 141.7C366.5 141.9 368.9 141.1 371.7 140C378.7 137.4 388 136.6 397.2 137.9C411.9 140 413 141.4 412.3 158.1C412 164.5 412 171 412.4 172.5C413.1 175.1 413.3 175.2 417.5 174.5C424.7 173.5 449.5 173.8 455.7 175C458.9 175.6 464.3 177.1 467.8 178.3C478.1 181.8 478.5 186 469.2 191C462.8 194.4 459.2 198.4 455.1 206.8C452.3 212.3 449 223.7 449 227.4C449 229 449.6 229.2 453.4 228.7C458.8 227.9 464.6 229.5 467.5 232.4C469.5 234.4 470.5 234.6 475.9 234.2C486.5 233.4 497 239.4 501.1 248.4C502.7 252.1 503.2 252.4 507.3 252.6C513.3 253 517.9 255 523 259.6C529.6 265.6 531.5 270 531.5 280C531.5 287.3 531.1 289.3 528.7 294.3C527.1 297.5 524.9 300.6 523.9 301.3C522.4 302.2 522 303.7 522 308C522 315.5 520.5 320.1 516.7 325.2C512.4 330.9 507.2 333.6 499.7 334.3C494.1 334.8 493.2 335.2 489.9 338.8C487 341.9 485.9 344.2 484.6 350.1C481.9 361.6 475.9 370.1 467.9 373.4C464.6 374.8 464.2 375.4 463.6 379.8C462.2 390.5 452.9 403.5 443.5 407.9C431.3 413.6 418.7 407.2 417.2 394.5C416.9 391.8 416.3 390.1 415.6 390.3C415 390.5 412.9 393.8 411 397.7C406.9 406 405 408.3 399.3 411.6C396 413.6 394.3 415.7 391 422.1C386.5 430.9 383.4 433.5 376.6 434.5C358.7 437.3 360.6 436.4 350.8 446.1C336.7 459.8 324.5 465.3 313.1 462.9C303.7 461 296.5 456.6 286.1 446.5L276.5 437.2L266 435.5C260.2 434.5 254.3 433.1 252.8 432.4C251.1 431.5 248.7 428.3 246.4 423.9C242.3 416.2 239 412.3 234.4 409.9C231.2 408.2 225.3 400.1 224.3 396C223.7 393.3 221.2 390 219.8 390C219.4 390 219 391.6 219 393.5C219 406.4 204.7 414 192.3 407.7C183 402.9 174.1 390.4 172.5 379.8C171.8 375.5 171.4 374.9 167.4 373C159.9 369.3 153.8 360.7 152 350.9C149.8 339.6 145.7 335.2 136.2 334.3C122.9 333 114 322.3 114 307.4C114 303.4 113.5 301.9 111.6 300.1C105.6 294.4 102.6 281.2 105.4 271.8C108.4 261.3 119.5 252.6 129.7 252.8C133.5 252.8 133.9 252.6 134.5 250C135.4 245.7 141.5 239.4 147.5 236.4C152.3 234.1 153.9 233.8 159.7 234.2C165.9 234.7 166.7 234.5 169.1 232.3C172.3 229.4 178.1 227.9 183.3 228.7C186.9 229.2 187 229.2 187 226.2C187 221 182.2 207.7 178.1 201.3C174.1 195.1 170.9 192.3 165.2 190C161.4 188.5 159.8 185.4 161.2 182.7C162.5 180.1 169 177.5 178.4 175.5C186.4 173.9 212.7 173.3 219.5 174.6C221.6 175 223 174.7 223.5 174C223.9 173.4 224.2 166.4 224.2 158.5L224.1 144.1L227 141.6C230.6 138.6 236.4 137.5 249 137.6C256.3 137.7 259.8 138.2 264 139.8C267 141 269.6 142 269.6 142C269.7 142 276.1 132.4 283.7 120.7C298.7 98 313 74.7 313 73.1C313 70.9 317.4 69.5 320.5 70.6ZM187.8 72.9C198.3 78.3 204.1 92.1 200.5 103C198.6 108.8 191.1 117.1 184.7 120.5C182.7 121.6 181 123 181 123.6C181 124.2 183.9 129.6 187.5 135.5C191.1 141.4 194 146.5 193.9 146.8C193.8 148.3 178.3 155.1 176.7 154.4C175.7 154 170.2 144.2 164.1 131.6C158.1 119.5 150.7 105 147.6 99.6C143.7 92.7 142.2 89 142.6 87.5C143.2 85 148.1 82.1 162.9 75.4C174.1 70.3 181.3 69.6 187.8 72.9ZM113.5 127.8C124.5 132.7 140.4 139.6 148.8 143C163.6 149.2 164.1 149.5 163.6 151.9C163.3 153.4 162.5 158 161.8 162.2C161.1 166.5 160.3 170 159.9 170C159.6 170 154.4 167.7 148.4 164.9C142.4 162 131.3 156.9 123.6 153.4L109.7 147.1L110.4 153.5C111 159.3 117.2 195.1 118.6 200.7C119.3 203.5 118.5 203.6 112.8 201.1L108.4 199.3L106.7 188.4C105.8 182.4 103.5 169.7 101.8 160.1L98.6 142.7L93.1 140.3C90 138.9 87.4 137.7 87.3 137.6C87.2 137.5 87.5 135.7 88 133.5C88.4 131.3 89.4 126.9 90 123.7C90.7 120 91.6 118 92.3 118.3C93 118.6 102.5 122.9 113.5 127.8ZM545.5 122C556.4 127.3 563.8 137.3 564.7 148.1C566 162.2 555.3 181 541 189.7C523.7 200.2 500.2 194 491.3 176.6C484.9 164.1 488.8 147.1 500.9 133.8C511 122.8 519.7 118.7 532.5 119.3C538.5 119.5 541.9 120.2 545.5 122ZM67.4 152.7C68.8 156.3 86.8 186.4 96.2 200.7L106.2 215.9L103.3 219.5C101.8 221.4 100 223 99.4 223C98.9 223 93.7 221.4 87.9 219.5C75.9 215.4 47.6 206.9 38 204.5C34.4 203.6 31 202.4 30.3 201.8C29.5 201.1 29.3 198.3 29.6 192.2C29.9 187.4 30.3 183 30.5 182.3C30.8 181.5 33.3 182 38.9 184C49.5 187.9 80.1 197.1 81.1 196.8C81.6 196.6 76.1 186.6 68.9 174.6C59.2 158.2 56.2 152.5 57.2 151.9C59.7 150.3 66.7 150.9 67.4 152.7ZM131.8 164.7L139.1 166.4L138.4 174.9C138 179.6 137.7 183.6 137.6 183.6C137.6 183.7 133.6 183.3 128.8 182.7L120 181.6V171.7C120 161.9 120 161.8 122.3 162.4C123.5 162.7 127.8 163.7 131.8 164.7ZM603.2 180.7C614.4 195.5 617 200.4 617 207.2C617 214.5 614.7 219.4 608.6 224.7C596.9 235 583.8 233.5 571 220.6L565.5 215.1L555.2 224.2C549.5 229.2 544.8 233.1 544.6 232.9C544.4 232.7 541.9 229.4 539.1 225.7C535.4 220.9 534.1 218.4 534.5 217C534.8 215.9 543.7 208.6 554.3 200.6C564.9 192.7 577.3 183 582 179.2C593.8 169.4 594.6 169.5 603.2 180.7ZM134.3 352.7C139.8 358.4 143 359.5 143 355.7C143 353.9 143.2 353.8 144 355C145.6 357.5 145.1 360.2 142 366C135.7 377.9 140.2 390 151.5 391.6L155.5 392.2L153.1 390.2C150.5 388.1 151 387.4 156.2 386C161.5 384.4 169.6 389.6 167.4 393.1C167.1 393.7 167.3 395.3 167.8 396.8C168.4 398.3 169.1 401.2 169.5 403.2C170.2 407.9 174.3 412.8 177.8 413.2C179.7 413.4 181.4 414.9 183.9 418.5C187.6 423.9 195 430.3 199.4 432C200.9 432.5 205.9 433 210.5 433C215.1 433 219.9 433.4 221.3 433.9C222.6 434.4 225.4 437.1 227.6 440C231.6 445.3 244.4 456.7 253.9 463.6C256.9 465.7 263.7 469.7 268.9 472.5C281.1 478.8 281.5 480.3 273.3 485.7C267.1 489.8 259.2 499.4 254 509.1C251.5 513.8 250.4 514.9 247.3 515.8C245.2 516.4 241.6 517.6 239.2 518.4C235 520 234.6 520 224.7 516.9C219.1 515.2 212 512.6 209 511.1C196 504.6 168.9 484.8 163.2 477.5C162 476 161 473.4 161 471.9C161 468 164.1 460.1 167.9 454.5L171 449.9L164.6 443.5C158 437 156 432.7 157.5 428.1C158.3 425.3 152.3 413.3 148.8 410.7C147.2 409.5 146 407.8 146 406.8C146 404 141.4 397.7 137 394.4C134.6 392.6 132.5 389.9 131.5 387.5L130 383.5L130.6 391.1C131.2 398.3 131.1 398.8 128.5 401.6C126.5 403.8 126.1 404 126.9 402.3C128.4 399.3 128.2 395 126.5 392C124.2 387.9 124.8 383.6 129 374.9C131.2 370.3 133 365.9 133 365.1C133 364.2 130.9 360.4 128.5 356.6C123.5 349 123.2 347.4 125.7 342.7L127.4 339.5L128.2 343.5C128.8 346.3 130.6 349 134.3 352.7ZM511.3 344.4C512.5 348.1 511.7 350.8 507.3 357.1C505.3 360.1 503.7 363.6 503.7 365.2C503.7 366.7 505.6 372 507.9 376.9L512.1 385.7L510.4 390.1C508 396.6 507.7 399.5 509 402.1C510 404.2 509.8 404.1 507.5 401.6C505 398.9 504.9 398.3 505.5 391.1C506 384 506 383.7 504.7 387C504 388.9 500.4 393.5 496.7 397.2C491.9 401.9 490 404.5 490 406.4C490 408 489.1 409.5 487.6 410.5C483.5 413.2 479 423 479 429.2C479 435.3 476.5 439.7 469.7 445.7C467.7 447.5 466 449.4 466 449.9C466 450.5 467.4 453.1 469 455.7C472.1 460.6 476 470 476 472.6C476 476.7 458.2 491.9 438.7 504.4C429.1 510.5 424.8 512.5 414.3 515.9L401.5 520L393.1 517.1C385.2 514.3 384.6 513.9 382.6 509.8C377.7 499.7 368.4 488.7 361.1 484.4C354.5 480.5 355.8 478.2 368.9 471.5C384.2 463.6 402 449.1 411.1 437L413.7 433.6L425.3 433C436.7 432.5 436.9 432.4 442.6 428.5C446.1 426.1 449.6 422.5 451.7 419.2C453.6 416.3 455.7 413.7 456.3 413.5C457 413.3 458.7 412.9 460.1 412.6C463.6 411.8 466 408.1 467 401.7C467.4 398.9 468.2 396.4 468.8 396.2C469.4 396 469.6 395.2 469.3 394.4C468.2 391.6 470 388.2 473.4 386.6C476.3 385.2 477.4 385.2 480.6 386.2C484.4 387.5 486.4 390 483.6 390C482.7 390 482 390.5 482 391.1C482 392.6 488.5 391.4 491.6 389.4C492.8 388.6 494.5 386.1 495.4 383.9C497.9 377.7 497.4 372.1 493.9 365.2C491.4 360.4 490.9 358.6 491.6 356.3C492.3 353.7 492.4 353.7 492.7 355.7C493.3 359.2 496 358.4 501.7 353.2C505.4 349.6 507 347.3 507.5 344.6C508.3 340.4 509.9 340.3 511.3 344.4ZM276.8 514.9C277.4 521.1 266.5 537.5 252.2 551.8C240.7 563.2 241.1 562 245 572.3C248.2 580.8 252.6 587 255.4 587C257.8 587 259 588.6 259 592C259 594.6 256.5 596.2 252.3 596.2C249.1 596.2 247.9 595.5 244.4 591.6C242.1 589.1 238.5 583.7 236.4 579.6L232.5 572.1L229.1 575.3C227.3 577.1 221.7 583 216.7 588.5C211.7 594 206.8 598.8 205.8 599.2C201.8 600.8 199.6 597.9 200.6 592.3C201.1 589.5 204.2 585.9 215.5 574.7L229.8 560.5L228.4 552.5C227.7 548.1 226.6 542.1 225.9 539.2C225 534.5 225 533.6 226.6 531.9C228.6 529.7 233.2 529.4 234.9 531.4C235.6 532.2 236.5 536.5 236.9 541C237.4 545.5 238.2 549.6 238.7 550.1C240 551.4 250.5 539.5 260.8 525.2C265.3 518.9 269 513.3 269 512.9C269 512.5 269.7 511.4 270.6 510.5C272 509.1 272.5 509.1 274.4 510.3C275.6 511.1 276.6 513 276.8 514.9ZM301.5 548.9C303.2 550 306.4 552.5 308.8 554.7L313.1 558.5L311.6 562.9C309.5 568.5 309.6 571.6 311.9 576.6C313.2 579.4 314.6 580.9 316.4 581.4C318.2 581.8 319 582.7 319 584.3C319 587.6 317.1 589 312.7 589C309.5 589 308.1 588.3 305.4 585.4C303.5 583.5 301.7 580.8 301.4 579.4C300.8 577.1 300.6 577.1 294.7 582.6C288.4 588.5 282.2 591.9 278.2 592C275.4 592 269 586 269 583.5C269 577.6 281.3 557.3 288.2 551.7C294.8 546.4 296.9 546 301.5 548.9ZM428.5 548.9C430.2 550 433.4 552.6 435.8 554.7L440.1 558.5L438.5 562.9C435.6 571.2 437.5 579.2 443 581.1C445.1 581.9 446 582.8 446 584.4C446 587.6 444.1 589 439.9 589C435.5 589 430.9 585.6 429 581C428.3 579.4 427.5 578 427.3 578C427 578 424.3 580.3 421.2 583C415.1 588.4 408.7 592 405.1 592C402.2 592 396 585.9 396 583.1C396 577 407.9 557.6 415.3 551.6C421.8 546.4 423.9 546 428.5 548.9ZM342.8 549.2C344.5 550.9 344.3 558 342.4 562.6L340.9 566.5L345.7 561.3C353.1 553.3 356.9 552.2 361.1 556.6C362.9 558.5 363.5 560.3 363.5 563.5V567.9L367.5 564.1C373.1 558.7 375.2 558.3 379 561.7C382.3 564.7 384.6 571.6 383.4 575.2C383.1 576.2 383.4 579.4 384 582.1C385.6 588.5 384.7 589.5 379.1 588C374 586.7 373 584.8 373 577C373 571.7 372.8 570.9 371.3 571.2C370.3 571.4 367.4 574.7 364.7 578.5C356.8 590.2 356.7 590.2 353 587.2L350.8 585.4L353.1 576.7C354.4 572 355.1 567.7 354.7 567.3C353 565.7 348.1 570.3 342 579.4C334.9 589.8 333.3 590.7 329.7 585.8C327.9 583.4 327.8 582.6 328.9 576.8C329.6 573.3 330.9 567.6 332 564C333 560.4 334.4 555.4 335 552.7C336.1 548.6 336.6 548 338.9 548C340.4 548 342.1 548.5 342.8 549.2Z" fill="#E3AD33"/>
<path d="M308.5 86.7C298.5 103.8 271.4 145 270.2 145C269.7 145 267.1 144.1 264.5 142.9C258.5 140.3 247.6 139.4 238 140.9C226.7 142.7 226.7 142.8 226.6 160.9C226.5 169.5 226.1 176.3 225.5 176.9C224.8 177.5 220.8 177.5 213.5 176.9C207.5 176.3 198 176.2 192.5 176.5C177.7 177.5 163 181.7 163 185C163 185.5 165.5 187.1 168.5 188.6C174.9 191.6 180.3 198 184.5 207.4C187.6 214.3 190 224 190 229.4C190 232.9 189.8 233.2 187.8 232.6C178.6 230 171.4 231.6 169.1 236.6C168.2 238.7 167.7 238.9 166.1 238C163.3 236.6 153.5 236.8 149.7 238.3C142.6 241.3 136.9 248.2 136.8 254C136.7 256.6 136.5 256.8 134.1 255.8C128.5 253.7 118.6 257.3 113.3 263.3C106.1 271.5 105 283.8 110.6 294C112.2 296.9 114.4 299.7 115.5 300.2C117.4 301 117.5 301.8 117.2 307.6C116.4 320.2 124.2 330.2 135.8 331.5C147 332.7 151.7 337.2 154.4 349.3C155.3 353 156.8 357.7 157.9 359.8C160.9 365.6 168.6 372 172.6 372C174.5 372 174.8 372.7 175.2 377.2C176.1 387.7 184.5 400.7 193.3 405.2C201 409.1 210 407.2 214.1 400.7C215.8 398.1 216 396.3 215.7 390.8C215.3 384.2 215.3 384.1 217.4 385.2C222.8 387.9 225.9 391.2 227.4 395.6C229.5 401.8 233.3 406.6 237.9 408.9C241.8 410.9 244.9 415 249.4 423.9C252.6 430.2 254.7 431.2 268 433L277.5 434.4L287.6 444C300.4 456.3 308 460.4 318 460.4C328.2 460.4 336.7 455.9 349.2 443.7L358.9 434.4L369.5 432.8C375.3 431.9 381.2 430.5 382.5 429.6C383.8 428.8 386.8 424.4 389.2 419.9C392.4 413.8 394.4 411.2 397 409.8C402.5 406.7 405.9 402.9 408.5 396.5C410.4 391.7 411.8 389.8 415.5 387.3C420.9 383.5 422.5 383.1 421 385.9C419.4 389 419.8 396.2 421.9 400C424.2 404.5 429.1 407.3 434.4 407.3C446.8 407.3 460.4 391.5 461.2 376.2C461.3 372.9 461.8 372 463.2 372C469.2 372 478.3 362.6 480.5 354.1C481.4 351 482.5 346.8 483.1 344.7C484.1 341 488.8 334.7 491.9 333C492.8 332.6 496.2 331.9 499.4 331.5C506.4 330.8 509.8 329.2 513.4 324.9C517.5 320.1 519.2 315.1 519.2 308.1C519.2 302.2 519.5 301.4 522.5 298.4C528.5 292.4 530.9 278.6 527.4 270.2C523.4 260.6 508.9 252.3 502.3 255.9C500.4 256.8 500.2 256.6 499.6 253C498.8 248 493.1 241.4 487.5 238.9C483.2 236.9 474.6 236.4 470.7 237.9C468.6 238.7 468.1 238.5 467.1 236.4C464.9 231.6 457.3 230.1 448.3 232.6C446.2 233.2 446 232.9 446 229.8C446 224.4 449.7 211.1 453 204.5C457 196.7 461.5 191.8 467.9 188.6C470.7 187.1 473 185.3 473 184.6C473 183.8 471.1 182.5 468.9 181.6C457.6 177.1 439.9 175.3 422.5 176.9C415.2 177.5 411.2 177.5 410.5 176.9C409.9 176.3 409.4 169.5 409.4 161.2C409.3 153.1 409.2 145.9 409.1 145.2C408.8 142.3 401.8 140.7 389.5 140.6C379.3 140.6 376.7 140.9 372 142.8C369 144 366.2 145 365.8 145C364.3 145 322.8 80.4 320.7 74.7C319.1 70.5 316.5 73.2 308.5 86.7ZM315 92.8C312.6 110.2 307.9 121.5 293.9 142.4C289.6 148.9 286 154.6 286 155C286 155.4 288 157.4 290.4 159.4C292.9 161.4 296.7 165 299 167.3C305.1 173.6 312.3 189 309.2 189C308.8 189 306.8 185.5 304.8 181.2C302.3 175.9 299.6 172 296.5 169.1C291.5 164.5 289 164.2 293.2 168.8C295.3 171 304 187.7 304 189.5C304 189.8 303.3 190 302.5 190C301.7 190 300.4 188.5 299.6 186.6C297.9 182.5 295.3 180.4 296.4 184.1C298 189.2 298.2 191 297.2 191C296.6 191 295.8 190.5 295.5 190C294.6 188.5 293.2 188.8 292.8 190.6C292.6 191.6 288.5 193.5 281 196L269.6 199.8L264.6 195.3C261.8 192.8 256.5 189.3 252.7 187.4L245.9 183.9L251.3 178C254.4 174.7 258.8 169.5 261.3 166.3C266 160.2 296.9 114 303.5 103.1C305.7 99.6 307.6 97.3 307.8 97.9C308 98.6 306.5 104.3 304.5 110.6C300.7 122.4 294.6 133.5 285.4 145.2C280.5 151.5 280.7 153 285.7 147.7C294.3 138.7 305.2 120.5 309.5 108.2C310.8 104.3 312.5 97.9 313.1 93.8C314.4 85.3 314.8 83.5 315.6 84.3C315.9 84.5 315.6 88.4 315 92.8ZM323 91.5C323 103.7 334.9 129.2 347.8 144.7C354.6 152.8 356.4 152.4 350.1 144.2C339.4 130.2 333.9 119.4 329.5 103.7C328.6 100.5 328 97.6 328.3 97.4C328.5 97.1 331.4 101.1 334.6 106.2C343.5 120.4 367.8 156.8 372.8 163.5C375.3 166.8 380.3 172.8 383.8 176.8C387.4 180.8 390.1 184.2 389.9 184.3C389.7 184.5 386.7 185.9 383.2 187.5C379.7 189.1 374.6 192.6 371.9 195.2L367 199.9L355.2 196C347.4 193.5 343.4 191.7 343.2 190.6C342.8 188.9 341 188.4 341 190C341 190.5 340.3 191 339.5 191C337.9 191 338.2 187.5 340.2 183.7C340.7 182.6 340.7 182 340.1 182C339.5 182 338.1 183.8 337 186C335.9 188.2 334.3 190 333.5 190C332.3 190 332.3 189.4 333.7 186.2C336.7 178.9 340.9 171.3 343.6 168L346.4 164.7L343.3 166.3C339.2 168.5 334.8 174.2 331 182.3C327.9 189.1 325.2 191.4 326.5 186.3C328.7 177.4 340.1 162.1 347.2 158.4C350.9 156.5 350.7 154.3 346.7 148.9C342.3 143.1 332.9 127.8 329.2 120.4C324.4 110.8 322.8 104.5 320.6 87.5C320.1 83.8 320.2 83.7 321.5 85.4C322.3 86.5 323 89.2 323 91.5ZM321.8 124.3C321.5 129.3 321.7 129.8 322.8 128.3C324 126.7 324.1 127.4 323.8 133.2C323.5 138.8 323.6 139.7 324.8 138.8C326.3 137.5 326 139 323.4 148C321.7 153.7 322.3 154.2 325 149.3L327.1 145.5L326.5 149.5C326.1 151.6 324.9 155.2 323.8 157.5L321.8 161.5L324.5 159L327.2 156.5L326.4 159.5C326 161.1 324.9 164.2 323.9 166.2C321.5 171 321.5 172.1 324 169.1C326.7 166 326.5 167.1 323.5 173C322 175.9 321.5 178 322.1 178.2C323.3 178.6 319.3 186 317.9 186C317.4 186 316.1 184.2 315 182C312.7 177.6 312.5 176.6 314.1 177.5C314.7 177.9 314 175.9 312.6 173.1C309.5 167 309.3 166 312.1 169.1C313.9 171.2 314.1 171.2 313.4 169.5C308.7 156.7 308.5 154.9 312 159.1C313.8 161.3 313.7 160.8 311.5 155.3C308.5 147.7 308.2 143.9 311.1 149.3C313.8 154.4 314.6 153.3 312.6 147.4C310.8 142.1 310.4 136.5 312 139C312.6 140 312.8 137.9 312.4 133C312.1 127.5 312.2 126.1 312.9 127.7C313.5 129 314.1 130 314.3 130C314.4 130 314.6 127 314.7 123.2C314.7 119.2 315.4 114.9 316.5 112.5L318.2 108.5L320.1 113.5C321.5 116.9 322 120.4 321.8 124.3ZM255.1 144.9C258.2 145.4 262.4 146.5 264.4 147.4C268.8 149.2 268.9 148.9 259.9 161L253.8 169.3L250.7 163.6C249 160.4 244.8 155.3 241.2 151.9C237.7 148.6 235.1 145.6 235.4 145.2C236.7 143.9 243.4 148.6 249.1 154.9C252.3 158.4 255 160.9 255 160.3C255 158.5 249.3 150.4 246.2 147.8C241.8 144.1 244.5 143.2 255.1 144.9ZM390.7 144.6C392.9 145.2 392.9 145.2 390.1 147.6C386.9 150.2 381 159 381 160.9C381 161.6 382.7 160 384.9 157.3C389.4 151.6 394.4 147.2 397.8 145.9C402.1 144.3 401.4 145.7 395.3 151.4C391.9 154.6 388 159.5 386.1 163C384.3 166.3 382.7 169 382.5 169C382.3 169 378.9 164.6 375 159.3L368 149.6L370.7 148.1C373.5 146.6 382.8 144.2 386.5 144.1C387.6 144.1 389.5 144.3 390.7 144.6ZM405.2 160.9C405 166.8 405.3 173.3 405.8 175.2L406.8 178.7L400.7 180.4L394.7 182.1L390.8 178.3C388.7 176.3 387 173.9 387 173C387.1 172.1 388.4 173 390.5 175.5C392.3 177.7 394.1 179.2 394.4 178.9C394.7 178.6 393.8 175.7 392.5 172.4C391.1 169.2 390.1 165.6 390.1 164.5C390.1 163.3 390.8 164.2 391.6 166.5C392.4 168.7 393.7 171.2 394.5 172C395.8 173.2 395.9 173 395 170C394.4 168.1 394.1 164.7 394.1 162.5L394.2 158.5L395.2 163.2C396.6 170.1 397.6 169.1 397.3 161.2C397.1 156 397.3 155.2 397.9 157.8C399.1 162.5 400 162.9 400.1 158.9C400.1 157 400.5 154.6 401 153.5C401.8 151.7 401.9 151.8 401.9 154.3C402 157.8 403.5 157 404.3 153C404.7 151.4 405.1 150 405.2 150C405.4 150 405.3 154.9 405.2 160.9ZM233.1 156.4C233.6 157 234 156.3 234 154.6C234 153.1 234.4 152.1 235 152.5C235.6 152.8 236 155.2 236 157.8C236 162.8 237.5 162.6 238.3 157.5C238.6 155.8 238.7 157.5 238.6 161.3C238.5 168.8 239.3 169.9 240.9 164.2C241.9 160.7 241.9 160.8 241.5 166.4C241.1 172.9 242.1 172.9 244.4 166.5C245.6 163.2 245.9 163 245.9 165C245.9 166.4 244.9 170.1 243.6 173.2C242.3 176.4 241.6 179 242 179C242.5 179 244.2 177.3 245.9 175.3C247.6 173.3 249.2 171.9 249.6 172.2C249.9 172.6 248.2 175 245.8 177.5L241.4 182.2L235.7 180.5L229.9 178.8L230.7 174.2C231.1 171.6 231.4 165.2 231.4 160C231.4 154.8 231.6 151.6 231.8 153C232 154.4 232.6 155.9 233.1 156.4ZM212.1 181C219.1 181.5 227.9 182.6 231.6 183.5C240.7 185.6 256.6 193.2 261.3 197.8C265.5 201.9 265.7 202.5 263.3 203.4C262.2 203.9 260.5 202.9 258.1 200.6C254.4 196.9 244.2 191.5 239.3 190.5C237.3 190.1 237.9 190.7 241.6 192.7C248.6 196.6 258.3 205.1 257 206.4C256.4 207 255.4 206.8 254.3 205.8C252.3 204.1 246.6 201 245.3 201C244.9 201 246.3 202.8 248.5 205C253 209.6 252.5 211.1 247.5 208.7C242.7 206.4 242.2 206.6 245 209.5C247.8 212.5 246.6 214.9 243.2 213.1C240.2 211.5 238.1 211.7 240.3 213.4C242.1 214.8 242.6 217 241.1 217C239.3 217 226.9 230.1 221.5 237.9C218.4 242.4 215.7 246 215.6 246C214.8 246 220.4 225.2 223.5 216.2C225.5 210.6 227 205.3 226.8 204.4C226.3 202 182.6 184.1 176.7 183.9C174.6 183.9 174.7 183.8 177 182.8C181.4 181 190.2 182.6 200.1 186.8C210.3 191.2 222.1 195.2 222.7 194.6C222.9 194.4 219.6 192.8 215.3 191C211 189.2 204.5 186.5 200.8 184.9C197.2 183.3 193.7 182 193 182C192.4 182 192.2 181.5 192.5 181C193.2 179.8 195.8 179.8 212.1 181ZM443.3 180.7C444 181.3 438.5 183.9 421.7 190.7C416.9 192.6 413.1 194.4 413.3 194.6C414 195.3 426.3 191.2 436 186.9C446 182.6 454.6 181 459 182.8C461 183.7 461.1 183.9 459.6 183.9C456.5 184 440.4 189.8 426 196C418.6 199.1 411.7 202 410.8 202.3C408.4 203.2 408.5 204.6 412.1 214.2C415 222.3 421.3 245.1 420.7 245.7C420.5 245.9 418.1 242.7 415.4 238.8C412.7 234.8 406.8 227.8 402.4 223.4C394.9 215.9 394.4 215.1 395.8 213.6C397.7 211.7 396 211.4 392.8 213.1C391.3 213.9 390.5 213.9 389.6 213C388.8 212.1 389.1 211.4 390.9 209.9C394 207.4 393.2 206.6 389.6 208.5C383.1 211.9 382.3 209.8 388 204.6C390.2 202.6 391.8 201 391.5 201C390.1 201 383.4 204.3 381.8 205.7C380.8 206.6 379.7 207 379.3 206.6C378.1 205.4 388.4 196 393.9 193.3C396.9 191.8 398.8 190.4 398.1 190.2C396 189.5 380.3 197.8 377.6 201.1C375.7 203.3 374.5 204 373 203.5C370.2 202.6 370.5 201.7 375 197.6C382.6 190.7 399.1 183.9 412.8 182C424.4 180.4 442.3 179.6 443.3 180.7ZM184.8 192.3C186.3 193.7 187 193.9 187 193C187 192.1 187.6 192.2 189 193.5C190.1 194.5 191 194.9 191 194.4C191 193.9 191.9 194.6 193 196C194.6 198.1 195 198.2 195 196.7C195 195.7 195.5 195.2 196 195.5C196.6 195.8 197 197.4 197 199.1C197 200.7 197.5 202 198 202C198.6 202 199 201 199 199.7C199 197.9 199.2 197.8 200 199C200.5 199.8 201 202.5 201 205C201 208.3 201.3 209.1 202 208C202.5 207.2 203 205.2 203 203.6C203 202 203.3 201 203.7 201.3C204 201.7 204.2 204.7 204.1 208.1C204 212 204.3 213.9 205 213.5C205.5 213.2 206 212 206 210.9C206 209.6 206.4 209.1 207.1 209.6C207.9 210.1 208.1 212.5 207.7 217.1C207.1 224.4 208.5 226.7 209.5 220.2C209.9 218.2 210.4 216 210.6 215.5C211.2 214 210.1 230.2 209.4 232.7C208.4 236.3 210.6 235.4 211.8 231.7C212.8 229 212.8 229.4 212.3 235C211.8 241.3 210.2 247.4 210.1 243.9C210 241.2 199.7 217 195.6 209.5C193.4 205.6 188.7 199.4 185.1 195.7C179.3 189.6 179 187.2 184.8 192.3ZM451.3 195.2C443.4 203.5 438 212.9 431 230.6C424.6 246.7 425.1 246.6 423.5 232.5L422.9 227.5L424.4 231.3C426.4 236.7 427.4 237.2 426.7 232.5C426 227.4 424.9 213 425.5 215C425.7 215.8 426.1 218.2 426.5 220.2C427.4 225.9 429.3 225 428.6 219.2C428.3 216.6 428.4 212.9 428.9 211C429.7 207.9 429.8 207.8 429.9 210.2C430 211.7 430.5 213.2 431 213.5C431.6 213.9 432 211.6 432.1 207.3C432.2 203.6 432.4 201.4 432.7 202.5C432.9 203.6 433.3 205.5 433.6 206.8C433.8 208.1 434.5 208.8 435 208.5C435.5 208.2 435.7 206.7 435.4 205.2C435.1 203.7 435.3 201.4 435.9 200C436.8 197.6 436.9 197.6 436.9 199.7C437 202.5 439 202.8 439 200.1C439 199 439.3 197.4 439.7 196.4C440.3 194.8 440.4 194.8 441.1 196.6C441.7 198.3 441.9 198.2 443.1 195.7C444 193.7 444.6 193.3 445.1 194.2C445.7 195.2 446.3 195 447.4 193.5C448.5 192.1 448.9 191.9 449 192.9C449 194 449.6 193.8 451.3 192.3C453.2 190.6 455.2 189.4 456.9 189.1C457.1 189 454.6 191.8 451.3 195.2ZM311.1 195.6C308.5 199 308.5 201.4 311 205L313.1 207.9L309.8 208.4C308 208.6 303.6 209.3 300.1 209.9C290.4 211.5 290.8 210.8 303 205.8C306.5 204.3 303.7 203.6 299.8 204.9C295.3 206.5 294.3 206.3 294.4 203.9C294.5 202.3 295.6 201.3 298.4 200.3C304.3 198.3 304.1 197.7 297.8 198.4C292.2 199 289 197.8 293 196.5C296 195.5 308.2 193.2 310.8 193.1L313.1 193L311.1 195.6ZM334.7 194.5C344.7 196.8 345.3 197.1 344.2 198.2C343.5 198.9 341.6 198.9 338.6 198.2C332.6 197 331.7 198.4 337.2 200.2C340.4 201.3 341.6 202.3 341.8 204C342.1 206 341.9 206.2 339.5 205.6C332.6 203.9 330.7 203.7 331.4 204.8C331.8 205.5 332.6 206 333.1 206C334.7 206 344.1 210.2 343.6 210.7C343.4 211 340.8 210.7 337.8 210.2C334.9 209.6 330.4 208.8 327.7 208.5L323 207.9L325 205.3C327.4 202.3 327.6 199.1 325.5 196.4C322.5 192.5 324.1 192.1 334.7 194.5ZM320.9 196.6C323.6 200 323.5 200.8 320.5 204.5L318.1 207.5L315.6 204.5C312.5 200.8 312.5 200.5 315.1 196.9C317.6 193.3 318.3 193.3 320.9 196.6ZM289.4 201.9C293.6 206.6 283.7 215.3 279.2 210.8C277.4 209 277.7 204.5 279.8 202.8C283.4 199.6 287 199.3 289.4 201.9ZM354.4 201.1C355.7 201.8 357.4 203.6 358.1 205.2C359.1 207.6 359 208.3 357.5 210C353.7 214.2 346 210.7 346 204.9C346 200.6 349.7 199 354.4 201.1ZM273.2 206.3C272.9 208.8 273.5 210.4 275.5 212.8L278.2 216L273.6 218C271.1 219.1 266.9 220.9 264.4 222C261.8 223.1 259.6 223.9 259.4 223.7C258.5 222.8 261.9 219.9 266.5 217.6C271.9 214.8 270.2 214 264.3 216.5C260.6 218 258 217.9 258 216.2C258 215.7 260 214.2 262.5 212.9C265 211.6 267 210.2 267 209.8C267 208.9 259.2 211.6 257.4 213.1C256.7 213.7 255.3 214 254.4 213.8C253.4 213.6 256.8 211.3 262.6 208.3C268 205.4 272.7 203 273 203C273.4 203 273.4 204.5 273.2 206.3ZM378.5 210.8C382.3 213.2 383 214 381.3 214C380.1 214 378.9 213.6 378.6 213.1C377.8 211.9 369 208.9 369 209.9C369 210.3 371 211.6 373.5 212.8C376 214 378 215.7 378 216.5C378 218.4 376.2 218.4 371.7 216.5C365.7 214 365.2 214.8 370.7 218C379.3 222.9 379.5 225.4 370.9 221.6C367.9 220.3 363.8 218.5 361.7 217.6L357.8 216L360.4 212.9C362.1 210.9 363 208.6 363 206.4V203L368.3 205.4C371.1 206.6 375.8 209.1 378.5 210.8ZM194.6 216.4C198.5 224 206.4 243.7 207.4 248.5C208 251.3 207.9 251.4 206.5 249.6C205.7 248.5 205 247 205 246.3C205 244.1 200.1 230.7 198.9 229.5C198.1 228.8 197.9 229.1 198.4 230.7C200.2 237.4 200.2 237.7 198.5 235C196.9 232.5 196.9 232.5 197.5 236.2C197.9 238.6 197.7 240 197 240C196.5 240 196 238.8 196 237.4C196 235.3 195.7 235 194.6 235.9C193.4 236.9 193.3 236.1 193.7 230.8C194.1 225.1 192.5 216.3 189.6 208.5C188.2 204.9 190.8 208.9 194.6 216.4ZM444.3 216.2C442.4 222.5 441.9 226 442.3 231C442.5 234.6 442.5 236.9 442.3 236.2C441.4 233.9 440.1 235 439.7 238.2C439.4 240.9 439.3 240.7 439.1 237C439 233.5 438.7 232.8 437.9 234C437.1 235.1 437 234.6 437.4 232C437.9 228.7 437.9 228.6 436.4 230.5C434.8 232.4 434.8 232.4 435.5 230C437.2 224.2 445.3 208 446.5 208C446.6 208 445.6 211.7 444.3 216.2ZM299 214.4C299 214.6 296.2 215.8 292.8 217.1C285 219.9 276.1 224 277.6 224C278.2 224 281.9 222.9 286 221.5C290 220.1 296.7 218.3 300.9 217.5C305.1 216.6 309.4 215.7 310.5 215.4C312 215 311.9 215.3 310 216.4C307.7 217.8 308.3 217.9 318.5 217.9C326.1 217.9 328.8 217.6 327.3 217C326 216.5 325 215.9 325 215.7C325 214.9 342.1 218.9 349.8 221.4C354.4 223 358.3 224 358.6 223.7C358.8 223.5 354.2 221.4 348.3 219C332.6 212.8 333 212.4 349.5 217.7C368 223.5 382.4 231.5 391.2 240.5C405.4 255.3 413.5 270.7 417.4 290.7C419.9 303.7 420.1 306 419.2 306C418.7 306 418 303.7 417.6 301C416.8 295.2 413.1 282.6 412.4 283.3C412.1 283.6 412.6 287.5 413.4 292C415.2 301.3 415.4 307 414.1 307C413.6 307 411.7 308.2 410 309.6C408.3 311.1 406.7 312.1 406.5 311.9C405.9 311.2 402 301 402 299.9C402 299.3 403.5 300.5 405.4 302.4C407.2 304.4 409.5 306 410.4 306C411.8 306 411.6 305.4 409.3 303.2C407.8 301.6 405.2 297.9 403.6 294.9L400.8 289.5L404.5 293.2C409.6 298.5 410.7 297.9 406.4 292.3C403 287.9 399 280.9 399 279.4C399 279 400.4 280.6 402 282.8C405.5 287.7 406.7 288.3 404.5 284C403.7 282.4 402.5 279.8 401.9 278.4C401.1 276.2 401.2 275.9 402.2 276.8C403.3 277.7 403.5 276.4 403.3 270.4C403.2 266.3 402.8 263.1 402.3 263.1C400.8 263.4 398.4 268.5 396.6 275.3C394.9 281.4 394.9 283.2 395.9 290.7C396.6 295.3 398.4 302.7 400 307C401.6 311.4 402.7 315.7 402.4 316.5C400.7 320.9 393.1 321.1 382 317C377.5 315.3 372 314 369.7 314C365.3 314 353.5 318.9 355.8 319.7C356.4 320 357 320.9 357.1 321.8C357.1 323.2 357.4 323 358.7 321.2C359.5 320 360.7 319 361.2 319C361.7 319 361.4 320 360.6 321.2C357.6 325.5 359 326.3 362.2 322.2C364 319.9 365.8 318 366.3 318C367.2 318 366.7 319 363.8 323C362.9 324.4 361.4 327.3 360.5 329.5C358.8 334 359.3 333.6 365.1 325.2C366.8 322.8 368.4 321.1 368.7 321.4C369 321.7 368.8 322.6 368.2 323.3C366.5 325.3 361 339 361 341.1C361 343.4 359.4 343.6 358.6 341.5C357.8 339.3 356 339.7 356 342C356 345 354 344.4 352.8 340.9C351.8 338.1 351.7 338 350 339.5C347.9 341.4 347.4 340.9 346.4 335.6L345.7 331.6L343.4 334.3C340.5 337.7 339.3 337.7 337.8 334.2C337.1 332.7 336.5 331.3 336.3 331.1C336.1 330.8 334.7 331.9 333 333.5C330.5 335.9 329.8 336.1 328.5 335C327.7 334.3 326.7 332 326.4 329.9C326 327.7 325.4 326 325 326C324.5 326 323.3 327.7 322.3 329.7C319.4 335.2 316.4 335.3 314.2 330.1C312.2 325.4 310.8 325.3 309.9 329.9C309.5 331.7 308.5 333.9 307.6 334.8C306.2 336.3 305.8 336.2 303.1 333.6L300.2 330.8L298.6 333.9C296.7 337.5 295.9 337.7 293.5 335C291.4 332.6 290 332.4 290 334.4C290 335.2 289.5 337.1 289 338.6C288 341.2 287.9 341.2 286 339.5C284.4 338 284 338 284 339.2C284 340 283.3 341.5 282.5 342.6C281.1 344.5 281 344.5 280.4 342.2C279.6 339.6 278.5 339.4 277.1 341.7C276 343.7 276.2 344 273.9 336.5C273.3 334.3 271.4 329.8 269.7 326.5C267.2 321.3 267 320.8 268.9 322.4C270 323.4 272.2 326.3 273.6 328.7C275 331.2 276.4 333 276.6 332.7C277.3 332 275 327.1 271.7 322.2C268.3 317.1 269.8 316.6 273.6 321.5C276.6 325.5 278.2 325.5 275.6 321.5C273.8 318.8 274.4 318.2 276.9 320.4C278.3 321.6 278.7 321.6 279.8 320.4C280.8 319.3 280.2 318.6 276 316.5C269.4 313.1 263.5 313.3 254 317C246 320.2 240.7 320.7 236.5 318.8C234.2 317.8 233.9 317.1 234.3 314.1C234.5 312.1 235.9 307.3 237.3 303.3C240.9 293.4 241.7 283.2 239.6 275.1C238 269 234.3 261.4 233.3 262.4C233.1 262.6 232.8 266.2 232.7 270.3C232.5 276.2 232.8 277.6 233.8 276.8C235.6 275.3 235.3 276.5 232.5 282C229.4 288.1 230.9 288.6 234.4 282.7C235.8 280.4 237 279.2 237 280C237 280.8 234.8 284.9 232 289C226.5 297.2 226.3 299.7 231.7 293.5L235.1 289.5L232.6 294.6C231.2 297.4 228.9 301.1 227.5 302.9C223.7 307.4 226.9 307 230.9 302.5C232.7 300.5 234 299.6 234 300.4C234 301.7 230.4 311 229.5 311.9C229.3 312.1 227.7 311.1 226.1 309.7C224.4 308.3 222.6 307 222 306.8C220.9 306.5 221 305 223.5 286.5C224 282.7 223.9 282.7 222 287.9C220.9 290.9 219.5 296.2 218.9 299.7C218.3 303.2 217.4 306 216.9 306C216 306 216.2 304 219.2 289.5C220.3 284 222.4 276.3 223.9 272.4C227.8 262.4 236.7 249.3 245.7 240.1C252 233.9 255.5 231.4 263.7 227.2C274.7 221.6 299 212.8 299 214.4ZM254 218.8C256 220.4 256.1 221.1 255.3 223.6C254.1 227.3 249.7 229.9 247.3 228.4C246.3 227.8 245.4 225.9 245.2 224.3C245 222 245.5 220.7 247.6 219.1C250.9 216.5 251.2 216.5 254 218.8ZM390.2 220.4C391.4 222.1 391.1 226.5 389.8 227.8C386.7 230.9 381 227.2 381 222C381 219.7 381.6 218.7 383.3 218.1C385.5 217.2 388.8 218.3 390.2 220.4ZM240.4 227.3C240.8 228.8 242 231 243.1 232.1L245.1 234.1L239.8 240.1C234.1 246.7 232.3 246.6 236.5 240C239.9 234.6 239.1 233.8 235.2 238.6C231.2 243.5 229.2 242.2 232.6 236.9C236 231.4 235 230.9 230.9 235.9C227.6 240.1 226 241 226 238.7C226 237.1 239.3 222.4 239.6 223.6C239.7 224.1 240.1 225.7 240.4 227.3ZM410.4 239.1C409.4 240.7 408.3 240 405.5 236C401.7 230.6 400.2 230.9 403.4 236.4C406.7 242.1 405.1 243.3 400.9 238.5C396.7 233.7 396.2 234.7 399.9 240.6C401.6 243.2 402.8 245.6 402.5 245.8C402.2 246.1 399.6 243.7 396.6 240.4L391.2 234.5L393.6 231.7C395 230 396 227.5 396 225.7C396.1 222.5 396.1 222.5 403.5 230.4C407.6 234.7 410.7 238.7 410.4 239.1ZM432.5 241.5C431.1 245.8 429.6 249.8 429 250.4C427.9 251.5 430.2 243 432.7 236.7C435.2 230.5 435.1 233 432.5 241.5ZM191 239.2C195.7 242.4 196 244 191.8 243.4C189.8 243 187 243.4 185 244.4L181.5 245.9L186.5 245.4C191.9 244.8 196.6 246.2 202.1 250.1L205.1 252.2L202.8 253.8C199.5 256.1 198.1 258.2 198 260.7C198 262.6 198.4 262.9 200.8 262.4C202.8 262 204.1 262.4 205.4 263.9C207.5 266.2 208.6 274.7 207.2 276.9C205.8 278.9 200.3 275.4 198 271L196.1 267.5L196 270.3C196 272.5 197.5 274.8 202.6 280C208.4 286 209.3 287.5 209.8 291.5C210.1 294.7 209.7 297.3 208.5 300C206.8 303.8 206.5 304 202.1 303.9C189.8 303.6 185.2 313.7 193.5 322.5C196.6 325.9 199.7 326.8 203.4 325.4C204.6 324.9 204.2 324.1 201.5 321.5C197.3 317.3 196.1 312.6 198.6 309.9C199.5 308.9 200.9 308 201.7 308C202.6 308 202.4 308.6 201 310C198.2 312.8 198.5 314.4 201.4 312.5C205.2 310 209.1 310.9 211.8 315C214 318.1 214.2 318.2 213.8 316C213.5 314.6 212.9 312.7 212.5 311.7C211.9 310.3 212.4 310 215.7 310C221.2 310 226.1 313.5 227.9 318.6C229.2 322.4 229.2 323 227.4 326.1C225.5 329.3 225.1 329.5 218.6 330C212.5 330.5 211.6 330.8 208.8 333.9C206.1 336.9 205.8 337.8 206.2 342.1C206.5 344.7 207.5 348.1 208.4 349.5C210.5 352.7 216.2 355.3 219.9 354.7L222.5 354.4L219.9 353.3C214.2 350.9 212.2 343.8 216 340C218.4 337.6 219 337.6 221.6 339.5C224 341.3 225.1 341.4 224.4 339.6C224.1 338.8 222.6 337.7 221.1 337C217.7 335.6 213.9 336.9 211.6 340.2C210.2 342.1 210 342.2 210 340.7C210 332.7 223.2 331 230.9 338C234.3 341.2 234.8 343.1 232.5 345C230.2 346.9 230.6 352.6 233.2 354.4C236.3 356.6 238 356.4 238 354C238 352.8 239.2 350.7 240.6 349.3C242.8 347.1 243.8 346.8 247.7 347.3C251.2 347.7 253.1 348.6 256.3 351.8C258.6 354 263.2 357 266.5 358.5C272.5 361.1 276 363.6 276 365.2C276 365.6 273.5 366 270.4 366C266.4 366 263.7 365.4 261.4 363.9C256.5 360.9 257.2 363.4 262.3 367.1C266.3 370 266.9 370.2 273 369.6C276.6 369.3 282.4 368.1 286 366.9C293.2 364.5 304.4 364 308 366C309.2 366.6 310.4 366.9 310.7 366.7C311.4 365.9 306.6 363 302.2 361.4C300.1 360.7 299.4 360.1 300.5 360.1C303.5 360.1 309.9 362.6 312.1 364.6C313.2 365.6 314 367.3 313.8 368.4C313.6 370.1 312.8 370.5 310.5 370.3C307.7 370.1 307.6 370.2 309.4 371.5C311.8 373.3 315.2 373.4 316.8 371.8C317.7 370.9 318.3 370.9 319.2 371.8C320.8 373.4 324.2 373.3 326.6 371.5C328.4 370.2 328.3 370.1 325.5 370.3C322 370.5 320.9 367.8 323.5 365C325.5 362.8 334.4 359.6 336.3 360.3C336.9 360.6 336.6 360.9 335.6 360.9C333.5 361 324.6 365.9 325.3 366.6C325.5 366.9 327 366.5 328.6 365.9C333.2 364.1 342.9 364.6 350 366.9C357.6 369.4 365.8 370.5 369.3 369.6C372.1 368.9 378 364.4 378 362.9C378 362.4 376.5 362.9 374.8 364C371.4 366 360 366.9 360 365.2C360 363.6 363.5 361.1 369.5 358.5C372.8 357 377.4 354 379.7 351.7C383.6 348 384.5 347.6 389.2 347.5C394 347.5 394.6 347.8 396.6 350.8C397.9 352.6 399 354.6 399.2 355.2C399.7 356.7 403.6 354.5 405 351.9C405.9 350.3 405.7 349 404 345.7L401.8 341.6L405.3 338.3C409.2 334.8 415.8 332.5 419.3 333.6C423.6 334.8 426 337 426 339.7V342.3L424 339.7C421.4 336.4 417.5 335.5 414.4 337.5C411.1 339.6 411.4 341.2 414.7 339.5C418.6 337.4 421.4 339.4 421.8 344.6C422.1 348.6 421.3 350 416.5 353.6C414.6 355 414.7 355.1 418.4 354.6C423.5 353.9 426.9 351.6 428.6 347.5C432.8 337.3 427.6 329.6 416.8 330.1C412.5 330.4 411.4 330 409.9 328.1C406.3 323.7 408.2 314.8 413.2 312.2C416.9 310.3 421.6 309.2 422.9 309.9C423.8 310.5 423.8 311.4 423 313.4C421.3 318.1 421.9 318.6 424.5 314.7C426.6 311.8 427.7 311 430.2 311C431.9 311 434.2 311.7 435.2 312.7C436.8 314.1 437 314.2 437 312.7C437 311.8 436 310.4 434.8 309.6C433.4 308.6 433.1 308 433.9 308C436 308 439 311.1 439 313.2C439 315.9 436.4 320.6 433.9 322.4C431.2 324.2 432.2 326 435.9 326C443.1 326 449.4 315.3 446 308.9C444.4 306 439.1 303.7 433.9 303.9C429.3 304 429.2 303.9 427.6 300C424.5 292.1 426.1 287.1 434.3 279.3C439.9 274 441.4 271.2 439.9 268.9C439.2 267.8 439 267.9 439 269.4C439 271.5 432.6 278 430.5 278C428.5 278 427.6 271.8 429 267.6C430.5 262.9 432.2 261.7 436.1 262.5C439 263.2 439.2 263.1 438.5 260.9C437.4 257.4 435.1 254.3 433.3 253.6C431.9 253 432 252.6 434 250.5C437.5 246.8 444 244.7 449.7 245.4L454.5 245.9L451 244.4C449 243.5 446.2 243 444.3 243.3C441.8 243.7 441.2 243.5 441.7 242.4C442.5 240.3 448.4 237 451.3 237C458 237 463.3 243.1 460.4 247.5C459.1 249.5 459.2 249.6 462.4 249.2C467.8 248.6 468.5 253.9 463.2 255.9L460.5 256.8L463.2 256.9C468.5 257.1 470.8 251.8 467 248C465.9 246.9 465 245.8 465 245.5C465 244.1 473.9 241 477.7 241C483.5 241 486.6 242.4 488.5 245.9C490.5 249.9 490.4 252.8 488 256.8C486.2 259.7 486.2 260 487.8 259.1C489.9 258 492.5 255.1 493.3 253C493.6 252 493.9 252.3 493.9 253.8C494 255.1 492.7 257.4 491.1 259.1C487.1 263 480.6 263.2 476.1 259.5C473.2 257 473.1 256.9 472 258.9C471.4 260 471.2 262.1 471.6 263.5C472.1 265.6 471.9 266 469.9 266C466 266 460.7 267.9 458 270.1C456 271.8 455.9 272 457.5 271.4C466.9 268 467.7 267.9 472 269C477.8 270.6 480.6 273.7 481.9 280.1C483.2 286.3 482.1 294.3 479.6 296.8C478.2 298.2 478.1 298 479.1 294.7C481.1 287.4 476.4 279 470.3 279C467.1 279 461 285 461 288.2C461 293.4 465.9 296.6 469.9 294.1C471.1 293.3 471.1 292.9 470.1 291.6C468.3 289.5 470.4 286 473.4 286C477.9 286 478.5 294.1 474.4 298.9C472.3 301.5 472.1 302 473.5 302C482.2 302 488.9 285.8 484.5 275.4C482.8 271.2 483 270.4 486.7 269.7C488.3 269.4 491.5 267.3 493.8 265.1C497.4 261.7 498.9 261 502.1 261C507 261 511.6 263.3 512.5 266.1C512.9 267.2 512.9 270.1 512.6 272.4L511.9 276.6L515.5 276.2C518.8 275.8 519.1 275.5 518.6 273.1C518.2 271.3 518.7 271.7 520 274.5C521.1 276.7 522 279.3 522 280.2C522 284.4 519.6 292.3 517.6 294.7C515.4 297.2 515.2 297.3 512.9 295.7C505.3 290.3 494 298.2 494 308.9C494 314 495.4 314.8 498.7 311.6C501.8 308.4 504.8 307.6 509.5 308.4C512.4 309 512.9 308.8 512.4 307.5C512 306.6 510.1 305.1 508.1 304C505 302.4 504.8 302.1 506.8 302C510.3 302 515 307.2 515 311C515 318.8 508.1 326.5 500.3 327.5C491.8 328.6 490.7 329.1 486.3 333.4C484 335.8 481.8 337.5 481.5 337.2C481.2 336.9 481 334.9 481 332.8C481 324.6 485.8 318.8 492.6 318.8C494.5 318.8 495.7 318.4 495.4 317.9C494.5 316.4 489.6 316.9 485.7 319C481.3 321.4 481 321.4 481 319.5C481 315.9 477.6 310 474.2 307.7C465.9 302.1 455.8 303.6 452.1 310.9C449.5 315.9 449.5 319.1 451.9 322.1L453.7 324.4L455.7 319.9C458.9 312.8 468 308.6 473 312.1C474.1 312.8 473.6 312.9 471 312.5C469 312.1 466.2 312.4 464.5 313.1L461.5 314.3L465.5 315C473.1 316.2 477 319.5 477 324.8C477 326.9 476.3 329.5 475.5 330.8C474.2 332.6 473.3 332.9 469.7 332.4C464.6 331.8 459.4 334.6 458.4 338.5C457.5 342 458.4 342.6 461.4 340.6C465.7 337.8 470.7 338.5 474.7 342.5C477.9 345.7 478.2 346.4 477.5 349.8C476.1 357.4 471.8 363.4 464.1 368.2L461.1 370.1L459.6 367.2C456.4 361 448.6 357.4 441 358.6C436.5 359.3 430.9 362.6 430.2 365C429.8 366.1 430.2 366 431.8 364.6C436.7 360.3 447.7 362 450.2 367.5C451.5 370.3 450.6 374.6 448.5 375.4C446.1 376.3 443.8 374.9 444.3 372.9C445 370.1 442.5 370.6 440.1 373.6C437.5 376.9 437.4 379.4 440 382C443.7 385.7 450.1 383.8 452.9 378.3C454.6 375 454.2 369.9 452 366.2C450.1 363.1 450.1 363 451.8 363.9C459.3 367.9 458.6 382.1 450.5 393.2C444.6 401.3 434 405.7 429.4 401.9C426.9 399.8 424.9 394.4 425.6 391.4C426.1 389.4 426.8 389 428.9 389.2C431.1 389.4 431.5 390 431.3 392.3C431.1 394.7 431.4 394.9 433 394C437.8 391.4 435.7 382.4 429.9 380C425.1 378 416.7 380.4 412.6 384.9C410.8 386.9 410.8 386.9 408.6 382.7C407 379.4 405.6 378.2 402.6 377.2C400.4 376.5 397.4 376.2 395.8 376.5L393.1 377.1L396.5 380.6C398.5 382.5 400.2 385.4 400.6 387.5C401.4 392.1 403.3 390.8 402.8 386C402.5 383 402.7 382.4 403.7 383.2C407.9 386.6 401.5 397 395.2 397C393.5 397 391.8 396.5 391.5 396C390.5 394.4 388 396.8 388 399.2C388 400.3 389.3 402.4 390.9 404L393.7 406.9L391.2 407.5C385.6 408.9 377.5 404.8 374.5 399C373 396.1 373 396 376.2 394.7C378 393.9 380.3 392.4 381.3 391.2L383.2 389.2L379.3 391.1C376.1 392.7 374.9 392.8 371.5 391.9C365.2 390.1 361 387.6 354.2 381.6C350.8 378.5 346.5 375.3 344.8 374.4C341 372.4 332.4 372.2 329.1 373.9C325.7 375.8 327.1 376.2 332.4 375C335.2 374.4 337.8 374.3 338.7 374.8C340.6 375.9 332.9 377.3 325.5 377.2C322.8 377.1 319.2 377.1 317.5 377.1C308.4 377.4 305 377.2 300.5 376.4C296.1 375.5 295.8 375.3 298.1 374.7C299.5 374.4 302.2 374.5 304.1 375C309.2 376.5 310.9 376.1 307.6 374.3C303.9 372.3 295.2 372.3 291.3 374.3C289.8 375.1 285.6 378.3 282.2 381.4C270.7 391.6 260.7 394.9 255.5 390C254.1 388.7 253 388.1 253 388.8C253 390.2 257.8 393.9 260.7 394.6C261.9 395 263 395.8 263 396.5C263 397.9 259.4 402.8 257 404.7C254.6 406.7 248.1 408.2 244.9 407.5L242 406.8L245 404.3C248 401.8 248.8 398.8 247 396C246.3 394.8 245.8 394.8 244.8 395.8C241.8 398.8 235.2 396.3 232.5 391C230.6 387.4 230.6 385.9 232.5 383.4C233.9 381.6 233.9 381.6 233.3 383.7C233 385 233.1 387.2 233.5 388.7C234.2 391.4 234.3 391.3 236.2 386.2C237.5 382.7 239 380.5 240.6 379.8C243.7 378.3 243.6 377.3 240.3 376.6C234.6 375.3 227.1 379.7 227 384.2C227 386.4 225.4 387.4 224.7 385.6C223.9 383.6 214 379 210.4 379C206.3 379 201.4 383 200.5 387.1C199.9 389.7 200.3 390.7 202.5 392.9C204.7 394.9 205.1 395.1 204.6 393.6C203.8 391.4 205.6 389 208 389C213.3 389 210.7 400.9 205 402.9C195.4 406.2 181 392.2 179.3 378C178.6 371.7 179.5 368.4 182.7 365.4C186.4 362 187.7 362.4 184.6 366.1C180.9 370.5 181 375.8 185.1 380.5C188.7 384.6 192.8 385.2 196 382C198.3 379.7 198.5 377.8 196.9 374.7C194.7 370.6 192.3 369.9 191.8 373.2C191.4 376.4 188.4 376.6 186.5 373.7C181.7 366.3 193.4 358.8 202.4 363.5C206.2 365.5 206.8 364.8 203.4 362.1C195.5 355.9 182.1 357.9 177.3 366.1C175.3 369.4 174.4 369.6 171 367.3C164.2 362.8 160.4 357.8 158.9 351.1C157.9 346.6 159.3 343.4 163.2 341C167.2 338.6 171.2 338.4 174.6 340.6C177.6 342.6 178.5 342 177.6 338.5C176.6 334.6 171.4 331.8 166.3 332.4C162.4 332.9 161.9 332.7 160.5 330C158.1 325.3 158.6 321.5 162.1 318.6C165 316.1 166.7 315.5 172 314.7C174.5 314.4 174.5 314.4 171.5 313.1C169.8 312.4 167 312.1 165 312.5C162.4 312.9 161.9 312.8 163 312.1C168.1 308.6 178.7 313.6 181 320.6L182.3 324.4L184.1 322.1C188 317.4 185.2 308.7 178.9 305.5C175.4 303.6 168.6 304.1 163.9 306.6C159.8 308.7 156.3 313.5 155.5 317.9L154.8 322L151.2 319.5C147.6 317 141.6 316.1 140.6 317.9C140.3 318.4 141.6 318.8 143.6 318.8C150.6 318.8 155 324.1 155 332.7C155 338.5 154.1 339.4 152 335.4C150 331.8 143.4 328.3 137.1 327.7C130.7 327 125.9 323.6 123 318C120.4 312.9 120.5 308.7 123.3 305.6C125.6 303 132 300.6 130.6 302.9C130.2 303.5 129.3 304 128.6 304C127.9 304 126.3 305.2 124.9 306.6L122.5 309.2L127.1 308.5C132 307.8 134.7 308.6 138.6 312.2C141.3 314.6 142.3 313.4 142.2 307.8C142 298 130.5 290.5 123.2 295.6C120.6 297.4 119.5 296.9 117.5 292.9C114 286.2 113.8 274.5 117.1 272.4C117.8 272 118 272.5 117.6 273.8C117 275.5 117.5 275.8 120.5 276.2L124.1 276.6L123.5 271.8C122.9 267.4 123.1 266.8 125.8 264C128.4 261.5 129.6 261 133.7 261C138 261 139 261.4 141.9 264.4C144.9 267.5 146.9 268.7 152.2 270.4C153.8 270.9 153.8 271.1 152.3 274.1C147.1 284.6 152 299.2 161.5 301.6L164.5 302.3L161.7 299.1C158.8 295.6 158 289.4 160.2 287.2C163.1 284.3 168.4 287.5 166.3 291C164 294.6 169.6 296.5 173.2 293.3C175.8 291 175.5 285.8 172.6 282.7C165.3 274.8 156.2 280.7 157.2 292.7C157.5 295.6 157.5 298 157.4 298C157.2 298 156.4 296.7 155.5 295C153.3 290.7 153.5 279.9 155.9 275.1C159.4 268.3 170 266.4 177.7 271.1C180.8 273 181.2 273.1 180 271.5C177.9 269 171.2 266 167.3 266C164.2 266 164.1 265.8 164.6 263C165.4 259.3 163.2 256 161.6 258.2C156.4 265.2 142 261.6 142 253.3C142 252 142.6 252.4 144 254.7C145 256.4 146.8 258.3 147.8 258.9C149.7 259.9 149.7 259.9 147.9 256.3C146.8 254.2 146 251.7 146 250.7C146 247.6 149 243 151.6 242C155.8 240.4 162.8 240.9 167 243C170.7 244.9 172.3 247 170 247C169.4 247 168.5 248.1 167.8 249.5C166.3 252.9 169 257 172.8 256.9H175.5L173 255.9C169.8 254.6 168.9 253 170.2 250.7C170.9 249.3 172 248.9 174.1 249.2C177.4 249.7 177.4 249.7 175.9 247.1C174.2 244.5 175.6 240.3 178.8 238.6C182.7 236.4 187.2 236.7 191 239.2ZM228.2 244.7C230.6 246.9 230.6 252.4 228 255C225.6 257.4 225.1 257.4 222.2 255.4C219.1 253.3 219.1 246.7 222.2 244.6C225 242.6 225.9 242.6 228.2 244.7ZM414.5 245.5C415.9 246.8 417 248.4 417 248.9C417 251.3 414.9 255 413 256C411.3 256.9 410.6 256.7 408.5 254.6C405.3 251.4 405.2 246.7 408.2 244.6C411.2 242.5 411.7 242.6 414.5 245.5ZM218.7 258C220.1 259.1 221.9 260 222.6 260C224.4 260 224.4 261.4 222.5 264.9C221.7 266.5 219.9 271.1 218.5 275.1C216.5 280.7 216 281.5 216.4 278.5C216.7 276.3 217.3 273.4 217.7 272.1C219 267.3 216.3 271 214.1 277.1C212.8 280.4 211.7 283 211.5 282.8C211.1 282.4 214.4 269.4 215.9 265.7C217.4 261.8 217.3 261.4 215 263.5C213.9 264.5 213 264.9 213 264.4C213 262.7 215.1 256 215.6 256C215.9 256 217.3 256.9 218.7 258ZM421.4 256.8C421.6 257.2 422.1 259.3 422.5 261.5C423.1 265.2 423 265.4 421.6 263.6C419.4 260.9 419.6 262.6 422.5 272.6C425.5 282.8 425.1 284.8 421.9 276.1C420.7 272.7 419.3 270 418.8 270C418.2 270 418.1 270.7 418.4 271.6C418.7 272.5 419.2 275 419.5 277.3L420 281.5L418.6 277.5C417.9 275.3 416.1 270.7 414.6 267.3C411.5 259.9 411.5 260 413.8 260C414.9 260 416.5 259.1 417.5 258C419.4 255.9 420.6 255.5 421.4 256.8ZM253.5 324C253.2 324.5 251.1 325.3 248.9 325.6C246.8 326 245 326.4 245 326.5C245 326.7 246 329.3 247.1 332.4C248.3 335.5 249.1 338.2 248.8 338.5C248.6 338.7 247.1 338.6 245.4 338.1C242.8 337.5 242.4 336.8 241.6 332.2C241.1 329.3 240.2 327 239.6 327C238.9 327 237.6 326.4 236.6 325.7C235 324.5 235.2 324.4 238.1 324.7C240 324.9 244 324.7 247 324.2C250 323.7 252.9 323.2 253.3 323.1C253.8 323.1 253.8 323.4 253.5 324ZM394.8 324.4C400 324.5 400.7 324.7 399.3 325.7C398.4 326.4 397.1 327 396.5 327C395.9 327 394.9 329.3 394.4 332.2C393.6 336.6 393.1 337.5 390.7 338.3C389.1 338.8 387.6 338.9 387.3 338.6C387 338.3 387.7 335.7 388.9 332.9C390 330.1 391 327.4 391 327C391 326.6 389.2 326 387.1 325.6C384.9 325.3 382.8 324.6 382.5 324C382.1 323.4 383.1 323.3 385.2 323.7C387 324.1 391.3 324.4 394.8 324.4ZM258.5 334.2C259.2 336 260.1 340.2 260.5 343.5L261.1 349.5L258.1 346C255.4 343 255 341.8 255 336.8C255 330.3 256.4 329.3 258.5 334.2ZM378.4 346.1C376.9 347.7 375.6 348.9 375.5 348.7C374.6 347.7 377.2 335.4 378.6 333.2L380.5 330.5L380.8 336.9C381.1 342.7 380.9 343.5 378.4 346.1ZM316 339.4C317 342.6 317 343.4 315.9 344.1C314 345.3 308.3 345.2 307.5 344.1C307.2 343.6 308.1 340.5 309.5 337.4C311.9 332.1 312.2 331.8 313.4 333.6C314.1 334.6 315.3 337.2 316 339.4ZM326.8 337.5C328 340.6 329 343.5 329 344C329 345.4 321.7 345.3 320.3 343.9C319.6 343.2 319.5 341.8 320 340.1C321.1 336.4 323.2 332 323.9 332C324.2 332 325.5 334.5 326.8 337.5ZM303.6 339.2C305.4 342.6 305.4 342.5 301.8 343.4C299.4 344 299 343.7 299 341.8C299 338.2 300.1 335 301.1 335.6C301.6 335.9 302.7 337.5 303.6 339.2ZM337.5 340.9C338.2 344.1 338.1 344.3 335.9 343.7C334.6 343.3 332.9 343 332.3 343C330.5 343 330.7 342 333.1 338.1C335.4 334.3 336.2 334.8 337.5 340.9ZM295.7 345.1C296 347.2 295.9 349 295.4 349C292.4 348.9 290.5 344.6 291.5 339.9C292.2 336.9 292.2 336.8 293.7 339C294.5 340.2 295.4 342.9 295.7 345.1ZM345 341.9C345 345.6 343.1 349 340.9 349C339.6 349 339.8 345.4 341.4 341.5C343.4 336.9 345 337.1 345 341.9ZM289.4 351.5C288.4 357.9 287.5 358.8 285.6 355.2C283.9 352 283.5 346.5 284.7 343.4C285.2 341.9 285.6 342.1 287.7 344.6C289.6 347 289.9 348.2 289.4 351.5ZM352 348.7C352 352.9 350.3 358 349 358C348.6 358 347.7 355.9 347.1 353.4C346 349.3 346.2 348.5 348.1 345.3C350.7 341.2 352 342.3 352 348.7ZM281.8 352.5C281.6 352.7 280.3 353.1 278.7 353.5C276.3 354.2 276 354 276 351.5C276 350.1 276.5 347.9 277.1 346.8C278.2 344.7 278.4 344.8 280.2 348.4C281.3 350.5 282 352.3 281.8 352.5ZM359.8 348.9C360.5 351 361 353.1 361 353.4C361 354.1 355 353.2 354.2 352.5C353.7 352.1 357.3 345 358 345C358.4 345 359.2 346.7 359.8 348.9ZM315 349C314.2 349.5 312.6 350 311.5 350C309.8 350 309.8 349.8 311 349C311.8 348.5 313.4 348 314.5 348C316.2 348 316.2 348.2 315 349ZM325 349C326.2 349.8 326.2 350 324.5 350C323.4 350 321.8 349.5 321 349C319.8 348.2 319.8 348 321.5 348C322.6 348 324.2 348.5 325 349ZM289.7 388.2C288.8 394.9 287.2 394.8 286.3 388.1C285.6 383.3 287.6 379.6 289.3 382.6C289.8 383.5 290 386 289.7 388.2ZM304.5 382.6C306.5 383.9 307 385.1 307 388.4C307 394.6 305.7 395.8 303.3 391.8C301 388.1 299.6 381 301.1 381C301.6 381 303.2 381.7 304.5 382.6ZM335.5 384.6C335.2 386.6 334.1 389.8 333.2 391.7C331.7 394.8 331.5 395 330.3 393.4C328.1 390.4 328.7 384.5 331.3 382.7C335.1 380 336.3 380.5 335.5 384.6ZM349.8 385.1C350 387 349.7 389.7 349.2 391L348.2 393.5L347 390.5C345.7 387 346.5 380.7 348.3 381.3C349 381.5 349.6 383.2 349.8 385.1ZM295.4 384.5C295.7 385.3 296.6 386 297.5 386C298.3 386 299 386.8 299 387.7C299 390.3 297.9 394 297.1 394C295.8 394 293 388.2 293 385.6C293 382.8 294.4 382.1 295.4 384.5ZM316.1 384.3C316.4 385.9 314.9 393.6 314.1 394.9C313.4 396 312.8 395.5 311.8 392.9C311 391 310 388 309.7 386.2C309.1 383 309.1 383 312.5 383.2C314.4 383.4 316 383.8 316.1 384.3ZM326.5 386.3C325.6 390.7 323.9 395 323 395C321.9 395 321.3 393.1 320.5 387.8L319.8 383.3L323.5 383.2C327.1 383.1 327.1 383.1 326.5 386.3ZM343.4 385.7C342.3 390.2 339.9 394.3 338.9 393.3C338.4 392.8 337.7 391 337.4 389.2C336.8 386.4 337 386 338.8 386C339.9 386 341 385.3 341.4 384.5C342.4 381.8 344.1 382.8 343.4 385.7ZM283.5 389.2C282.6 393.4 282.1 394.2 280.9 393.5C279.6 392.6 279.8 388.6 281.2 387.2C283.3 385.1 284.2 385.9 283.5 389.2ZM354.8 387.2C356.2 388.6 356.4 394 355.1 394C354.2 394 353.9 393.2 352.4 387.7C351.8 385.7 353 385.4 354.8 387.2ZM279.2 395.6C281.1 398.8 281.5 399 282.5 397.6C284 395.6 286 395.5 286 397.5C286 399.7 286.9 399.4 289.2 396.5C291.6 393.5 293.6 393.3 295 396.1C296.1 398 296.3 398 297.9 396.6C300.1 394.6 302.6 394.5 303.4 396.5C304 398.2 307 398.6 307 397C307 396.4 307.9 396 309 396C310.1 396 311 396.5 311 397C311 399 314.1 399.3 316 397.5C317.8 395.9 318 395.9 320.6 397.9L323.2 400L325 397.7C326.7 395.7 327.1 395.6 329.1 396.9C331.1 398.1 331.5 398 332.5 396.6C334 394.6 335.9 394.6 338.1 396.6C339.7 398.1 340 398 341.2 396.1C342.9 393.3 344.4 393.5 347 396.7C349.1 399.4 349.2 399.4 350.6 397.6C352 395.6 352 395.6 353.4 397.6C354.2 398.6 355 399.3 355.2 399C355.4 398.7 356.3 397.2 357.2 395.5C360 390.5 361.2 391.5 359 396.9C355.7 405.5 356.8 406.6 361.5 399.5C363.2 397.1 364.7 395 365 395C366.4 395 367.8 396.8 368.4 399.5C369.4 403.3 376 409.6 379.9 410.5C381.6 410.9 383 411.8 383 412.5C383 414.8 376.8 421.2 373.3 422.6C368.5 424.7 368 424.2 372.3 421.6C376.8 418.8 381 415 381 413.7C381 413.2 380 413.5 378.8 414.4C375.2 416.9 370.9 419.2 367.8 420.1C363.3 421.3 364.6 419.4 369.4 417.6C371.9 416.7 374.4 415.2 375.2 414.3C376.3 412.8 376.3 412.7 374.5 413.5C373.4 413.9 370.9 414.5 369 414.6L365.5 415L368.7 413.5C373.2 411.4 374.1 409.6 370.1 410.5C368.1 410.9 367 410.8 367 410.1C367 407.9 365.2 409.1 364.5 411.7C363.5 415.9 355.6 428.2 350.9 432.9C348.6 435.1 343.8 438.4 340.2 440.2C333.6 443.5 333.5 443.5 318 443.5H302.5L295.8 440.2C287.3 436.1 279.7 427.8 274.4 417.2C269.7 407.8 270.1 408.3 269.1 409.8C268.6 410.7 267.4 410.9 265.5 410.4C261.8 409.5 263 411.5 267.3 413.5L270.5 415L267 414.6C265.1 414.4 262.6 413.8 261.5 413.4C259.7 412.7 259.7 412.8 260.8 414.3C261.6 415.2 264.1 416.7 266.6 417.6C271.5 419.4 272.7 421.3 268.1 420C264.6 419 261 417.2 258.7 415.2C257.8 414.4 256.7 414 256.4 414.3C255.4 415.3 257.9 417.9 262.7 420.7C268.1 423.8 267.7 424.9 262.2 422.1C258.3 420.1 253 414.5 253 412.3C253 411.8 254.7 410.8 256.8 410.1C262.7 408.3 268 402.7 268 398.4C268 394.9 271 394.5 273.7 397.7C274.9 399.2 276.2 401.3 276.5 402.2C276.9 403.2 277.6 404 278.1 404C279.4 404 278.3 398.6 276.4 394.7C274.2 390.6 276.7 391.3 279.2 395.6ZM250.4 416.5C253.1 421 257.5 425 262 427C264.1 427.9 263.9 427.9 260.5 427.4C255.4 426.7 255.8 427 251.3 420.2C246 412.4 245.7 412 246.8 412C247.4 412 249 414 250.4 416.5ZM390 412.6C390 413.3 381.1 425.8 380.2 426.4C379.8 426.6 377.7 427.1 375.5 427.5L371.5 428.1L375 426.5C379.6 424.4 383.7 420.4 386.1 415.7C387.8 412.5 390 410.7 390 412.6ZM365.7 424.6C365.4 424.9 364.5 425 363.8 424.7C363 424.4 363.3 424.1 364.4 424.1C365.5 424 366.1 424.3 365.7 424.6ZM340.5 446.6C338.3 448.5 333.7 451.5 330.2 453.2C319.4 458.6 309.3 457.1 297.9 448.3C295.2 446.3 293.2 444.5 293.3 444.4C293.4 444.3 296.2 445.1 299.5 446.2C304.4 447.9 308 448.3 318.5 448.3C330.1 448.3 332.1 448 337.5 445.7C340.8 444.4 343.7 443.2 344 443.2C344.3 443.1 342.7 444.6 340.5 446.6Z" fill="black"/>
<path d="M289.5 227C288 227.6 288.8 227.9 292.9 227.9C303.1 228.1 310.6 235.5 309.8 244.7L309.5 248.5L308.2 244.4C307.6 242.2 305.4 238.6 303.5 236.4L300 232.5L302.1 237.3C307 248.9 302.8 266.6 292.9 275.6C291.6 276.8 287.8 279.2 284.5 280.9C281.2 282.6 279.6 283.8 281 283.4C286.7 281.9 292.5 278.4 297.1 273.7C299.8 271 302 269.1 302 269.6C302.1 270.1 304 266.7 306.3 262C309.7 255.2 311.2 253.1 314.2 251.5L317.9 249.5L322.2 251.6C326.1 253.6 326.8 254.5 330.4 262.9C332.6 268 334.8 272.4 335.3 272.7C335.8 273 335.7 272.3 335.1 271.2C333.2 267.6 333.9 268 338.7 273.1C343.3 278.1 348.6 281.5 354.2 283.1C358.5 284.3 357.5 283.4 351.7 280.7C341.7 276.1 335.7 268.6 333 257.1C331.5 250.8 332.2 241.4 334.4 236.9C336.4 232.9 336.4 232.4 334.4 234.1C331.8 236.2 328 242.7 328 245C328 246.1 327.5 247 326.9 247C325.2 247 326.6 238 328.8 235C332.3 230.3 336.8 228 342.9 227.9C347.7 227.9 348.1 227.7 346 226.9C343 225.7 336.9 226.5 332.3 228.6C328.9 230.3 325.7 234.6 322.8 241.5C321.3 245 321.1 245.2 321.1 242.9C321 241.4 321.7 238.3 322.5 236C323.8 232.3 323.8 231.9 322.5 233C321.7 233.6 320.5 235.7 319.8 237.6C318.5 241.3 317 242.1 317 239.1C317 238 315.9 235.8 314.5 234.3L312 231.5L313.5 235.2C314.3 237.3 315 240.4 315 242.2C314.9 245.4 314.9 245.4 313.1 240.8C310.7 234.7 307.5 230.3 304.1 228.5C300.5 226.7 292.1 225.8 289.5 227Z" fill="black"/>
<path d="M285.4 234.5C282.7 235.9 276.2 238.2 271 239.6C260.3 242.4 254.4 245.5 250.5 250.2L247.8 253.5L249.7 250.2C252.1 245.7 258.3 240.2 261.7 239.5C267.8 238.2 268.6 237 263.3 237.3C255.5 237.9 249.5 242 245.4 249.5C241.1 257.2 239.4 265 240.8 270.5C241.4 272.7 242.5 277 243.2 280C245.1 287.3 247.4 290.7 251.7 292.1C256.3 293.6 261.2 292.1 266 287.9C269.8 284.6 269.8 284.6 259.7 287.6C252.9 289.6 251.4 288.9 255.5 285.4C259.8 281.9 264.9 279.4 269.5 278.6C271.7 278.2 276.7 277 280.5 275.8C286.2 274.2 288.3 272.9 292.1 269.1C297 264 300 257.2 300 251.1C300 246.1 297.1 236.5 294.8 234.1C292.4 231.4 291.4 231.5 285.4 234.5ZM293.5 257.7C293.2 259.5 291.8 262.2 290.5 263.8C288 266.8 277.5 272.4 272.5 273.5L269.5 274.1L272.8 272.6C274.5 271.8 279.1 269.1 282.9 266.6C290.3 261.9 291 260.6 292.6 250.5L293.5 245.5L293.8 250C294 252.4 293.9 255.9 293.5 257.7ZM287.3 260.1C285.4 263.3 281.2 266.3 277 267.5C275.4 267.9 276.2 267 279.5 264.7C282.3 262.8 285.4 260.3 286.4 259.1C289.1 256.1 289.4 256.5 287.3 260.1ZM258 277.5C257.3 278.3 256.2 279 255.6 279C255 279 255.4 278.3 256.4 277.5C258.9 275.6 259.6 275.6 258 277.5Z" fill="black"/>
<path d="M341.7 233.8C338.9 236.9 336.8 244.3 336.8 251.3C336.8 256.9 337.3 258.9 339.8 263.3C344.2 271.2 349.1 274.4 360.7 277.1C370.6 279.3 378.6 282.7 381.6 286.2C384.2 289 382.6 289.5 376.3 287.6C366.1 284.5 366.2 284.5 370 287.8C373.3 290.7 378.5 293 382 293C382.8 293 384.9 292.1 386.6 291.1C389.9 289.1 391.1 286.4 394.5 274.3C397.3 264.6 395 254 388.3 245.2C385.1 241 376.9 237 371.5 237.1H367.5L373 239C377.1 240.4 379.7 242.2 383.3 246C385.9 248.8 388 251.6 388 252.1C388 252.6 386.6 251.5 384.8 249.5C380.8 244.9 374.4 241.7 365.2 239.6C361.1 238.7 355.2 236.6 351.9 235C345.1 231.5 343.9 231.4 341.7 233.8ZM344 251.6C344 259.5 348.2 264.4 360.2 270.8C364.4 273 365.5 273.9 363.5 273.5C358.8 272.5 346.9 265.7 344.7 262.9C342.5 259.8 340.8 246.1 342.9 247.4C343.5 247.8 344 249.7 344 251.6ZM356.7 264.6C361.7 267.6 361.8 268.8 356.8 266.7C353.5 265.3 347 258.8 347 256.9C347 256.3 348.2 257.2 349.6 258.9C351 260.6 354.2 263.2 356.7 264.6ZM382 279.2C382 279.7 380.9 279.3 379.5 278.4C378.1 277.5 377 276.6 377 276.4C377 276.2 378.1 276.6 379.5 277.2C380.9 277.8 382 278.7 382 279.2Z" fill="black"/>
<path d="M313.2 254.6C309.5 257.6 308 260.2 304.9 269.1C303.7 272.6 301.7 277.5 300.5 280C299.3 282.5 297.8 287.1 297.1 290.3C296 295.4 296 296.4 297.5 298.6C301.1 304.1 308 303.3 313.6 296.8C316.4 293.3 316 291.7 313 294.5C309.8 297.4 310.8 294.8 314.6 290.5L318.1 286.5L322 291C326 295.5 326.6 297.8 323 294.5C321.8 293.4 321 293.2 321 293.9C321 295.5 326.8 300.9 329.8 302.1C332.5 303.1 335.8 302 338.4 299.1C340.1 297.2 340.2 296.5 339.1 290.8C338.4 287.3 337.2 283.1 336.3 281.5C335.5 279.8 333.3 274.3 331.4 269.1C327.5 258.5 326.3 256.5 322.3 253.9C318.6 251.4 317.1 251.5 313.2 254.6ZM306.8 279.1C306.2 280.7 305.6 281.9 305.4 281.7C304.9 281.2 306.7 276 307.4 276C307.7 276 307.4 277.4 306.8 279.1ZM330.9 280.2C331.9 283.2 331.8 283.3 330.5 281.6C329.7 280.5 329 279 329 278.3C329 276.1 329.8 276.9 330.9 280.2ZM306.7 292C308.2 292.1 308.1 292.4 306.1 294.1C303.9 295.9 303.6 296 302.7 294.5C302.2 293.6 302.1 291.7 302.5 290.2C303.2 287.5 303.2 287.5 304.1 289.7C304.5 291 305.7 292 306.7 292ZM334 291.9C334 295.8 332.7 296.4 329.9 294C327.8 292.4 327.8 292.1 329.3 292C330.3 292 331.3 291.3 331.6 290.5C332.6 288 334 288.8 334 291.9Z" fill="black"/>
<path d="M293 285C291.6 287.2 290.2 289 289.7 289C289.3 289 289.2 289.4 289.5 290C289.9 290.6 288.9 290.7 287 290.4C283 289.6 283.1 291.2 287.2 292.8C288.9 293.4 290.1 294.2 289.8 294.6C289.4 294.9 288.3 294.7 287.2 294.1C286 293.5 283.6 293 281.8 293.1H278.5L282.3 294.5C286 295.9 291.1 299 289.7 299C289.2 299 287.5 298.3 285.8 297.4C282.3 295.6 274.6 295 273.1 296.5C272.3 297.3 273.3 297.6 276.2 297.7C278.9 297.9 282 299 285.4 301.1C297.2 308.6 302.2 309.7 307 306L309.5 304.1L304.5 304.6C299.9 305.1 299.3 305 296.6 302.1C294.1 299.5 293.7 298.3 293.8 293.8C293.8 290.9 294.5 286.8 295.4 284.7C297.5 279.8 296.1 280 293 285Z" fill="black"/>
<path d="M341.2 286.2C343.8 293 343.1 298.2 339.3 302.2C336.8 304.9 336.1 305.1 331.8 304.6C329.1 304.3 327 304.3 327 304.5C327 304.8 328.4 305.7 330.2 306.6C334.7 308.9 340 307.9 347.3 303.2C354.4 298.6 359.5 296.9 362.8 298.1C365.1 299 365.9 297.7 363.8 296.4C361.8 295.1 353.2 295.8 349.8 297.6C346.9 299 346.7 299 348 297.6C348.8 296.8 351.3 295.4 353.5 294.6L357.5 293.1H354.2C352.4 293 350 293.5 348.9 294C347.6 294.7 347 294.7 347 294.1C347 293.5 348.1 292.8 349.5 292.4C353.1 291.5 352.6 289.6 349 290.4C347.1 290.7 346.1 290.6 346.5 290C346.8 289.4 346.6 289 346 289C345.4 289 345.2 288.5 345.5 288C345.8 287.4 345.7 287 345.1 287C344.5 287 343.4 285.6 342.5 284C339.9 279.1 339 280.6 341.2 286.2Z" fill="black"/>
<path d="M391.5 295.2C391.1 296.8 390.4 298 389.9 298C389.4 298 389 299.9 388.9 302.2C388.9 305.5 388.7 306 388 304.5C387.3 302.9 387.1 303.3 387.1 306.3C387 308.4 386.6 309.9 386.1 309.5C385.6 309.2 384.9 309.9 384.5 310.9C384.1 312.1 383.3 312.7 382.4 312.3C380.2 311.5 380.8 313.8 383.3 315.4C384.5 316.2 387.1 317.2 389.2 317.5C392.1 318.1 393.2 317.8 394.9 316.1C397.5 313.5 397.5 313.5 394.6 302C392.6 294 392.1 292.9 391.5 295.2Z" fill="black"/>
<path d="M241.6 301.3C238.6 313.1 238.6 313.6 241 316C242.8 317.8 243.9 318.1 246.8 317.5C250.9 316.8 255 314.5 255 313C255 312.5 254.3 312.3 253.5 312.6C252.2 313.2 251.5 312 251.9 309.7C252.1 308.5 250.2 308.9 249.6 310.2C249.2 310.9 249.2 309.8 249.4 307.8C249.9 304.1 248.7 301.7 247.7 304.2C247.4 304.9 247.1 303.7 247.1 301.5C247 298.5 246.7 297.9 246 299C245.3 300.1 245 299.7 245 297.2C245 291.9 243.6 293.5 241.6 301.3Z" fill="black"/>
<path d="M311.7 314C309 319.7 309.9 322.6 312.8 317.9C314.9 314.4 315.8 310 314.3 310C313.8 310 312.7 311.8 311.7 314Z" fill="black"/>
<path d="M321.5 311.2C320.8 313 324.7 321 326.2 321C327.5 321 327.1 319.4 324.6 314.3C322.7 310.6 322 309.9 321.5 311.2Z" fill="black"/>
<path d="M139.7 273.8C137.9 275.7 137.3 281 138.8 281C139.7 281 142.4 273.1 141.7 272.4C141.5 272.2 140.6 272.8 139.7 273.8Z" fill="black"/>
<path d="M189 272.6C189 273.1 189.6 275.5 190.4 277.9C191.8 282.7 193.6 282 192.5 277C191.9 274.4 189 270.6 189 272.6Z" fill="black"/>
<path d="M445.1 273.8C444.5 275 444 277.4 444.1 279.2C444.1 282.3 444.2 282.2 445.6 277.6C447.2 272.5 446.9 270.4 445.1 273.8Z" fill="black"/>
<path d="M495.2 277C496.3 281.4 498 282.4 498 278.6C498 275.2 497 273 495.5 273C494.5 273 494.4 273.9 495.2 277Z" fill="black"/>
<path d="M128 280.7C128 281.2 130.1 282.8 132.8 284.5C135.4 286.1 139 288.8 140.7 290.4C142.5 291.9 144 292.8 144 292.3C144 290.4 137.7 282.9 134.9 281.5C131.9 279.9 128 279.5 128 280.7Z" fill="black"/>
<path d="M178 280.8C178 281.3 178.7 282.4 179.7 283.1C182.7 285.7 186 294.2 186 299.8C186 303.1 186.4 304.9 187 304.5C187.6 304.2 188 302.8 188 301.5C188 299.3 190.1 296.8 194.5 293.5C196.5 292.1 196.5 292.1 194.5 292C193.4 292 191.5 292.7 190.3 293.5C188.2 295 188 294.9 187.5 292.3C186.4 286.8 182.6 280.5 180.3 280.2C179 280 178 280.3 178 280.8Z" fill="black"/>
<path d="M452.2 283.2C451.1 285 449.7 288.5 449 290.8C447.9 295 447.8 295.1 446 293.5C445 292.6 443.1 292 441.8 292.2C439.7 292.5 439.8 292.7 443.2 294.7C445.6 296.1 447.2 297.9 447.6 299.7C448.7 304.7 449.4 305.7 449.7 302.5C450.7 293 451.4 290.6 454.6 285.9C456.5 283.1 458 280.6 458 280.4C458 280.2 457.1 280 456.1 280C455 280 453.3 281.4 452.2 283.2Z" fill="black"/>
<path d="M500.8 281.8C497.8 283.8 492 290.7 492 292.3C492 292.9 493.2 292.3 494.8 290.9C496.3 289.5 499.9 286.9 502.7 285C505.6 283.1 508 281.2 508 280.7C508 279.4 503.5 280 500.8 281.8Z" fill="black"/>
<path d="M183 328.9C181.4 332 181.8 337.2 184 340.5C186.1 343.7 185.4 345 181.4 345C180.3 345 178.5 345.8 177.6 346.9C176 348.7 176.1 348.8 183.7 348.7C188.3 348.7 193.2 349.3 195.8 350.2C198.1 351.1 200 351.6 200 351.4C200 351.2 197.5 349.2 194.4 346.9C188 342.2 184.5 336 185.2 330.4C185.6 326.6 184.6 326 183 328.9Z" fill="black"/>
<path d="M450.5 331.8C450.4 338.6 447.8 343.2 441.4 347.4C438.4 349.4 436 351.2 436 351.4C436 351.6 437.9 351.1 440.3 350.2C442.8 349.3 447.7 348.7 452.3 348.7C456.5 348.7 460 348.4 460 347.9C460 346.6 456.6 345.1 453.1 344.8C451.4 344.7 450 344.5 450 344.3C450 344.2 450.9 342.6 452 340.8C454.8 336.1 454.6 327 451.6 327C451 327 450.5 328.9 450.5 331.8Z" fill="black"/>
<path d="M245.2 359.2C243.6 360.8 243.7 366.5 245.5 369.9C246.9 372.7 250.7 376.3 254.6 378.6C256.2 379.5 256.3 380 255.2 381.2C254.5 382.1 254.2 383.5 254.6 384.3C255.1 385.6 255.5 385.5 257.3 383.4C259 381.4 261 380.7 266.5 379.9C271.4 379.2 275.9 377.7 281.5 374.8C285.9 372.5 291.8 370.1 294.5 369.3L299.5 368L293.5 368.4C289.4 368.6 284.5 370 278.5 372.5C264.2 378.5 255.8 377.6 249.8 369.6C248.3 367.5 247.5 365.1 247.5 362.3C247.5 357.8 247.1 357.3 245.2 359.2Z" fill="black"/>
<path d="M389.3 360.2C390.3 363.9 386.6 370.6 381.9 373.7C375.7 377.8 369.4 377.4 356.4 372.1C349 369.1 344.9 368 341.4 368.1L336.5 368.2L342 369.5C345.1 370.3 351 372.7 355.2 375C360.3 377.7 364.6 379.3 368.2 379.6C375.2 380.3 378.8 381.8 379.6 384.2C380 385.6 380.5 385.9 381.3 385.1C382 384.4 382 383.4 381.2 381.6C380.3 379.5 380.5 379 383.8 376.9C390.3 372.6 393.6 365.3 391.4 359.6C390.5 357.2 388.7 357.7 389.3 360.2Z" fill="black"/>
<path d="M228 364.4C228 366.3 232.7 370 235 370C236.4 370 236 369.2 233.3 366.5C229.5 362.7 228 362.1 228 364.4Z" fill="black"/>
<path d="M403 366.5C400.7 368.9 400.1 370 401.2 370C403.3 370 408 366.2 408 364.4C408 362.2 406.7 362.7 403 366.5Z" fill="black"/>
<path d="M315.6 401.1C314.4 401.8 311.3 402 306.9 401.6C298.6 400.7 293.9 401.5 291 404.2C288.1 406.9 289 407.4 293.2 405.4C296.3 403.9 297.3 403.9 305.1 405.4C311.8 406.7 312.4 406.9 308.2 406.6C302.5 406.3 302.4 407.3 308 408.7C313.3 410 328.5 409.3 331.7 407.6C334.4 406.2 334.3 406.1 328.5 406.5C323.1 406.9 323.4 406.8 331.2 405.4C339.1 403.9 340.1 403.9 343.1 405.4C346.9 407.3 347 407.3 347 406C347 405.5 345.8 404.2 344.3 403.3C342.1 401.9 339.4 401.5 331 401.5C325.2 401.4 319.8 401.1 319 400.7C318.2 400.4 316.7 400.5 315.6 401.1Z" fill="black"/>
<path d="M278 415.8C278 416.7 280.1 419.9 285.3 426.7C300.4 446.7 333.9 447.2 350.2 427.7C355.1 421.8 358.5 416.2 357.7 415.4C357.4 415.1 355.4 417.3 353.1 420.2C349.5 424.8 340 433 340 431.5C340 431.3 342.1 429 344.6 426.5C349.9 421.2 349.8 419.2 344.5 423.9C342.5 425.6 339 427.9 336.7 429L332.5 431.1L334.9 429C338.5 425.9 336.7 425.5 331.7 428.4C326.7 431.4 325.8 431.6 326.6 429.6C327 428.4 326.4 428.5 322.7 429.8C318.8 431.2 317.9 431.2 313.6 429.8C309.8 428.5 309 428.5 309.4 429.6C309.8 430.6 309.4 430.7 307.4 429.9C305.9 429.4 303.8 428.3 302.7 427.5C299.3 425.1 298.4 425.8 301.1 428.6L303.5 431.3L300 429.5C298.1 428.5 294.6 426.2 292.3 424.3C286.6 419.7 286.9 421.2 292.8 427.3C295.4 430 296.6 431.8 295.5 431.2C292.2 429.5 284.5 422.4 281.9 418.6C279.6 415.2 278 414 278 415.8Z" fill="black"/>
<path d="M308.5 452.6C311.3 453.9 315.3 455 317.6 455C321.8 455 330.6 452.5 331.5 450.9C331.8 450.5 330.3 450.7 328.1 451.5C323.6 453.1 310.4 452.8 307.2 451.1C306.1 450.5 304.8 450 304.3 450.1C303.9 450.1 305.8 451.2 308.5 452.6Z" fill="black"/>
<path d="M162.1 82.9C161 83.6 162.3 87.1 168.8 100.4C173.2 109.5 177.3 117 177.8 117C178.9 117 183.5 112.1 184.9 109.3C187.6 104.1 185.3 93.5 180.1 87.6C176.2 83.1 166 80.5 162.1 82.9Z" fill="#E3AD33"/>
<path d="M536.8 130.5C518 137.4 501.3 165.7 507.4 180.3C508.9 184 509.1 184.1 512.7 183.4C529.1 180.4 546.9 158.6 547 141.4C547 129.6 545 127.5 536.8 130.5ZM535.8 155.2L535.5 165.5L527.1 166.3C522.6 166.8 518.6 167 518.5 166.8C518.3 166.6 517.7 162.7 517.3 158.2L516.4 149.9L518.9 149.4C521.2 148.8 535.1 145.3 535.8 145.1C535.9 145 535.9 149.6 535.8 155.2Z" fill="#E3AD33"/>
<path d="M585.8 199.6C577.9 205.5 571.3 210.5 571 210.7C570 211.6 576.2 216 580 217C589.7 219.6 602.3 210.7 603.7 200.2C604.2 196.1 602.5 189 601 189C600.5 189 593.7 193.8 585.8 199.6Z" fill="#E3AD33"/>
<path d="M153.3 399.9C147.6 404 147 406.4 150.8 410.4C155.8 415.6 159 423.2 159 429.6C159 435.2 159 435.2 166.1 442.5L173.1 449.8L169.1 455.9C164 463.8 161.5 471.2 162.9 473.8C165 477.7 179 489.7 190.6 497.6C205.3 507.7 211.7 510.9 224.8 515L235.1 518.2L242.5 515.5L249.9 512.8L254.3 505.1C259.6 496.1 268.3 486.2 273.4 483.5C275.4 482.4 277 480.9 277 480C277 479.1 272.9 476.4 266.7 473.2C251.6 465.5 236 452.7 223.8 438.2C221.2 435 221 435 212.3 435C207.5 435 202 434.6 200.1 434C195 432.6 186.2 425.4 182.9 420C180 415.3 177.1 413.2 175.1 414.5C173.4 415.5 168.7 408.1 167.5 402.7L166.4 397.5L161.9 397.2C158.2 397 156.7 397.5 153.3 399.9ZM168 413.8C169.3 415.6 170.2 417.1 169.9 417.2C169.7 417.4 168.1 418.8 166.3 420.4L163.1 423.2L159.8 416.9C155.5 408.6 155.5 408.6 156.9 409.5C157.6 409.9 159.5 412 161.1 414.2C164.8 419.3 165.2 416.4 161.6 410.5C159.8 407.6 159.4 406.2 160.2 405.2C161.9 403.2 160.3 402.6 157.8 404.4C156.6 405.3 154.9 406 154.1 406C151.7 406 156 402.1 159.4 401.2C162.5 400.3 162.5 400.4 164.1 405.5C165 408.3 166.7 412.1 168 413.8ZM177.7 419.6C177.8 420.1 177.5 421.2 177 422C175.8 424 173.5 421.8 174.4 419.5C175 417.8 177.1 417.9 177.7 419.6ZM174 423.5C175 424.7 175 425.6 174.1 427.3C173.5 428.5 173.1 428.8 173.4 428C173.6 427.2 172.8 425.5 171.7 424.2C170 422.4 169.9 422 171.2 422C172.1 422 173.3 422.7 174 423.5ZM190.5 433.3C192 434.1 191.6 434.5 188.3 436C186.1 437 182.4 439.6 180 441.9C175.9 445.8 175.6 445.9 173.8 444.3C171.6 442.3 171.9 440.6 174.6 440.5C176.7 440.5 182 436.8 182 435.3C182 434.9 180.8 433.2 179.4 431.6C177.9 430.1 177.1 428.5 177.6 428.1C178.1 427.8 178.5 426.9 178.6 426.2C178.7 425.6 178.8 424.5 178.9 423.8C178.9 423.2 181.2 424.9 183.9 427.5C186.6 430.1 189.6 432.7 190.5 433.3ZM169.1 438.2C168.1 439.3 167.4 438.9 165.4 436.5C164.1 434.8 163 432.6 163 431.5C163 429.9 163.6 430.1 166.7 433.2C169.7 436.3 170.2 437.2 169.1 438.2ZM202.2 444.3C210.8 452.7 227.7 465.3 241.1 473.3L252.1 479.8L248 484.5C243.5 489.7 239.5 497.2 236 506.7C234.8 510.2 233.2 513 232.6 513C231.9 513 227.1 511.7 221.9 510C208.6 505.9 186.4 491.7 172.3 478.4L165.9 472.4L167.9 466.9C173 453.5 187.1 438.3 194.6 438C195.3 438 198.6 440.8 202.2 444.3ZM213.5 439H219.5L224.3 444.9C230 452 246.1 465.6 256.8 472.4C262.2 475.8 263.6 477 261.5 476.6C255 475.1 241.5 465.4 223.6 449.1C216.2 442.4 214 441 211.3 441C209.5 441 208 441.4 208 442C208 442.5 208.8 443 209.8 443C210.7 443 214.7 446.5 218.5 450.7C222.3 455 224.6 457.8 223.5 457C213.5 449.6 203 440.2 203 438.7C203 438.2 204 438 205.3 438.4C206.5 438.7 210.2 439 213.5 439ZM262.3 482.9C256.8 483.4 255.7 483.9 253 487C249.3 491.4 245.2 499.4 244.4 504C243.9 507.2 244.2 506.9 247.2 501.5C252 492.9 254 490.1 254 492.2C254 493.3 254.5 493.7 255.5 493.4C257.2 492.7 257.6 494.5 256 495.5C255.5 495.8 253.2 499.1 251 502.8C247.6 508.6 246.4 509.8 242.5 511.3L237.9 512.9L238.6 510.7C240.4 504.7 248.2 490 251.4 486.2C255.2 482 255.2 482 261.8 482.2L268.5 482.3L262.3 482.9Z" fill="black"/>
<path d="M191.2 443C186.1 445.1 178 453.2 178 456.4C178 458.1 181 456.6 184.1 453.4C185.9 451.4 188.8 448.9 190.4 448L193.3 446.2L203.9 455.8C209.8 461.1 217.8 467.4 221.8 469.7C229.3 474.2 233.6 475.5 228.5 471.7C222.8 467.5 211.5 457.6 203.4 449.8C194.8 441.6 194.8 441.6 191.2 443Z" fill="black"/>
<path d="M182.9 460.9C176.2 467.5 176.3 469.4 184.2 476.4C190.9 482.4 197.6 486.4 202.6 487.4C205.4 488 205.8 487.8 207 485C207.7 483.3 209.6 480.1 211.1 478C212.7 475.8 214 473.8 214 473.6C214 473.4 212.5 472.3 210.7 471.3C208.9 470.2 204 466.3 199.8 462.7C195.3 458.7 191.2 456 189.9 456C188.6 456 185.8 458 182.9 460.9ZM197.9 465.8C201.5 469 205.5 472.3 206.7 473.1C208.8 474.5 208.8 474.8 207.4 476.8C206.5 478.1 205.3 478.7 204.2 478.4C202.9 477.9 202.8 478 203.9 478.8C204.9 479.5 205 480.2 204.1 481.8C203.2 483.6 202.5 483.8 200.5 483C196.9 481.6 191.1 477.6 185.6 472.7L180.7 468.4L184.5 464.2C186.5 461.9 188.9 460 189.7 460C190.6 460 194.2 462.6 197.9 465.8Z" fill="black"/>
<path d="M186.5 465L183.6 468L186.8 471.2L190 474.4L193 471.5C196.6 468 196.7 467 193.7 464.2C190.7 461.3 189.9 461.4 186.5 465Z" fill="black"/>
<path d="M199 472.1C199 472.6 199.5 472.8 200 472.5C200.6 472.2 201 471.7 201 471.4C201 471.2 200.6 471 200 471C199.5 471 199 471.5 199 472.1Z" fill="black"/>
<path d="M197 475.1C197 475.6 197.5 475.8 198 475.5C198.6 475.2 199 474.7 199 474.4C199 474.2 198.6 474 198 474C197.5 474 197 474.5 197 475.1Z" fill="black"/>
<path d="M212 482.2C208.9 487.7 208.5 489 209.8 489C210.9 489 217.1 477 216 477C215.5 477 213.7 479.4 212 482.2Z" fill="black"/>
<path d="M215.3 482.2C213.5 484.6 212.9 486 213.7 486C214.7 486 217.3 482 216.7 481.4C216.5 481.1 215.8 481.5 215.3 482.2Z" fill="black"/>
<path d="M227.4 483C221.7 485.3 220.4 492.2 224.8 497.1C228.4 501.1 232.1 501.2 236.1 497.4C240.1 493.6 240.1 488.9 236.1 484.9C233.1 481.9 231.1 481.5 227.4 483ZM233.5 488C233.9 488.6 233.4 488.7 232.4 488.3C230.9 487.7 230.9 487.9 232.4 490.2C235.3 494.7 231.7 498.7 228 495C225.7 492.7 225.4 490 227.2 488.2C228.7 486.7 232.6 486.6 233.5 488Z" fill="black"/>
<path d="M469.7 397.7C469.3 398 469 399.5 469 400.9C469 404.2 465.9 411.1 463.5 413C462.6 413.8 460.9 414.4 459.7 414.5C458.4 414.5 456 416.7 453 420.5C450.5 423.8 445.8 428.3 442.6 430.5C437 434.4 436.7 434.5 426.3 434.8L415.8 435.2L404.1 446.9C390.8 460.3 384.2 465.3 369.9 473C364.2 476 359.5 479 359.3 479.7C359.1 480.3 361.5 482.6 364.7 484.8C370.6 488.8 381.5 502.5 384.6 509.7C385.6 511.9 387 513.2 389.2 513.9C391 514.4 394.5 515.6 397 516.5C401.2 518.1 401.8 518 408.5 516C425 511 427 510 444.9 498.1C458.2 489.3 474 474.9 474 471.6C474 469.3 468.5 457.4 465.1 452.5L463.1 449.6L470 442.4C477.1 435.1 477.4 434.4 477.1 427.9C476.8 423.3 481 414.7 485.8 410.2L489.3 406.9L487.3 404.2C484 399.7 479.1 397 474.5 397C472.2 397 470 397.3 469.7 397.7ZM480.1 402.7C481.7 403.7 483 404.8 483 405.2C483 406.5 480.5 406.1 478.4 404.5C475.7 402.5 474.7 402.6 476 404.9C476.7 406.4 476.4 407.8 474.5 411.2C470.8 417.6 471.5 419 475.6 413.6C477.6 411 479.4 409 479.6 409.2C479.9 409.5 474.9 420.2 473.2 422.9C473.1 423.2 471.4 421.9 469.6 420.1L466.2 416.8L469 412.4C470.5 409.9 472.1 406.4 472.4 404.5C473.2 400.4 475.4 399.9 480.1 402.7ZM461.9 418.9C463.1 419.7 463.1 420.1 462.1 421.4C460.4 423.4 459.4 423.4 458.6 421.4C457.5 418.5 459.2 417.2 461.9 418.9ZM464.5 424C463.5 425.1 463 426.8 463.3 428C464 430.6 463.4 430.6 462 427.9C461.1 426.3 461.2 425.4 462.6 423.9C463.5 422.9 464.8 422 465.3 422C465.9 422 465.5 422.9 464.5 424ZM457.7 426.1C457.4 427.1 457.7 428.1 458.3 428.3C459 428.5 458.3 430 456.7 432L453.9 435.3L456.7 438.2C458.7 440.3 460.1 440.9 461.7 440.5C464.4 439.9 464.7 441.5 462.4 444.2C460.8 445.9 460.5 445.8 456.4 442C454 439.8 450.4 437.2 448.5 436.3C446.6 435.4 445 434.4 445 434.1C445 433.8 446.6 432.4 448.6 431.1C450.5 429.8 453 427.4 454.1 425.8C456.3 422.8 458.5 423 457.7 426.1ZM472.6 433.9C470.6 437.7 468.2 439.6 466.9 438.3C466.2 437.6 466.8 436.1 469 433.6C472.6 429.5 474.7 429.7 472.6 433.9ZM432.3 440.3C430.5 442.7 416.4 454.6 413.3 456.4C412.3 456.9 414.5 454.1 418 450.2C421.6 446.2 425.3 443 426.3 443C427.2 443 428 442.5 428 442C428 441.4 426.5 441 424.7 441C422 441 419.8 442.5 412.1 449.5C394.1 466 381.6 474.9 374.5 476.5C372.2 477.1 373 476.3 377.5 473.5C390 465.9 405.9 452.6 412.2 444.7L416.2 439.5L423.9 438.9C428.1 438.6 432.1 438.3 432.8 438.2C433.7 438.1 433.6 438.7 432.3 440.3ZM446.9 439.9C454.2 443.7 465.9 458.8 469 468.5L470.3 472.4L463.1 479.1C456 485.8 437.4 499 427 504.8C421.9 507.6 406.5 513 403.6 513C402.8 513 401.9 511.8 401.5 510.2C400.2 504.6 392 488.8 388.1 484.3L384.2 479.7L392.8 474.7C408.2 466 429.3 450.1 436 442.3C440 437.6 441.6 437.2 446.9 439.9ZM383.6 485.2C389.1 491.1 394.5 501 397.4 510.7L398.1 512.8L393.5 511.1C389.6 509.6 388.3 508.4 385.4 503.4C383.5 500.2 381.2 496.4 380.2 495C378.6 492.7 378.6 492.6 380.3 493.3C381.5 493.7 382 493.4 382 492.2C382.1 490.7 382.3 490.7 383.6 492.5C384.5 493.6 386.5 497.2 388.2 500.5C391.6 507.3 391.8 507.5 392.5 506.8C393.7 505.7 388.7 494.3 384.9 489.3C380.6 483.8 379.6 483.3 372 482.7C368.6 482.4 369 482.3 374.1 482.2C380.3 482 380.8 482.2 383.6 485.2Z" fill="black"/>
<path d="M441 442.8C440.2 443 435.4 447.1 430.5 451.9C422.4 459.5 412.2 468.3 406.5 472.5C405 473.6 404.9 473.9 406 474C409.1 474 423.9 463.8 433.1 455.2C443.8 445 443.1 445.1 451.2 452.7C457.7 458.7 459.8 458.5 456.1 452.4C452.8 447 444.4 441.7 441 442.8Z" fill="black"/>
<path d="M435.9 463.1C431.3 467 426.6 470.7 425.3 471.3C422.3 472.6 422.4 474.3 425.5 478.4C426.9 480.2 428.5 483.1 429.1 484.8C429.8 486.8 430.9 488 431.9 488C435.5 488 446.1 481.7 452.6 475.7C457.9 470.7 459.1 469 458.6 467.4C457.6 464.1 448.9 456 446.4 456C445 456 440.8 458.8 435.9 463.1ZM451.5 464L455.4 468L452.4 471.1C448.4 475.3 441 480.7 436.7 482.5L433.2 484L430.4 479.3L427.7 474.7L431.6 471.6C433.7 469.9 437.5 466.6 440 464.3C442.5 462 445.2 460 446 460C446.9 460 449.3 461.8 451.5 464Z" fill="black"/>
<path d="M442.2 464.3C439.3 467.3 439.4 468.1 442.9 471.4L445.8 474.2L448.9 471.9C452.7 469.1 452.8 468 449.4 464.6C446.1 461.4 445 461.3 442.2 464.3Z" fill="black"/>
<path d="M435.5 472C435.9 472.6 436.6 472.8 437.1 472.5C438.5 471.6 438.2 471 436.4 471C435.6 471 435.2 471.5 435.5 472Z" fill="black"/>
<path d="M437.5 475C437.9 475.6 438.6 475.8 439.1 475.5C440.5 474.6 440.2 474 438.4 474C437.6 474 437.2 474.5 437.5 475Z" fill="black"/>
<path d="M420 477.5C420 477.9 420.7 479.5 421.6 481.3L423.3 484.5L421.1 482.5L418.8 480.5L420.1 483.3C420.8 484.8 421.8 485.9 422.4 485.7C423 485.5 424.2 486.3 425.2 487.4C428.2 491 427.3 486.9 424 481.7C421.3 477.4 420 476.1 420 477.5Z" fill="black"/>
<path d="M402.5 483.2C397 486.2 395.5 491.9 399.1 496.4C402.2 500.3 405.5 501.3 409 499.5C415 496.4 416 488.8 410.9 484.6C407.6 481.8 405.6 481.4 402.5 483.2ZM409.4 488.6C410.5 491.6 410 493.9 407.8 495.4C406.2 496.5 405.3 496.7 404.3 495.8C402.7 494.5 402.6 490.8 404.3 489.1C405.3 488 405.2 487.8 403.7 488.3C402.6 488.7 402.1 488.6 402.5 488C403.5 486.4 408.7 486.8 409.4 488.6Z" fill="black"/>
<path d="M291.8 561.9C287.5 566.6 281 577.6 281 579.9C281 583.4 299.4 567.1 300.6 562.6C301.3 559.8 299.7 557 297.5 557C296.8 557 294.2 559.2 291.8 561.9Z" fill="#E3AD33"/>
<path d="M420.5 559.7C416.7 563.5 409.3 575 408.4 578.6L407.7 581.4L410.6 579.5C415.8 576.1 423 569.6 425.7 565.7C427.9 562.5 428.1 561.6 427.2 559.5C425.7 556.3 423.9 556.3 420.5 559.7Z" fill="#E3AD33"/>
</g>
</g>
<defs>
<clipPath id="clip0_39_29061">
<rect width="640" height="640" fill="white"/>
</clipPath>
</defs>
</svg>
